<?xml version="1.0" standalone="yes"?>
<svg xmlns="http://www.w3.org/2000/svg" width="512" height="512">
<path style="fill:#000000; stroke:none;" d="M0 0L0 41L0.686728 39.9136L0.824074 39.483L1.16589 38.679L2.6983 33.9992C3.18511 32.6432 3.72898 31.3169 4.3125 30L4.78549 29C5.26203 27.9828 5.78155 26.976 6.33796 26C7.54269 23.8868 8.9353 21.8886 10.4676 20C11.8881 18.2491 13.4315 16.6074 15.0147 15.0038C17.2053 12.7849 19.4595 10.608 22 8.78857C24.1863 7.22281 26.5771 5.94162 29 4.78473C31.8436 3.42691 34.7913 2.32187 37.8395 1.51852L39.3287 1.1983L41 1L39.9136 0.415131L39.483 0.358032L38.679 0.160492L36.9414 0.0339355L33.9992 0.000762939L27 0L0 0z"/>
<path style="fill:#efcd6a; stroke:none;" d="M41 0.464508C39.3101 0.768646 37.6431 1.22861 36 1.72147C34.3111 2.22806 32.6353 2.79187 31 3.45294C29.2944 4.14246 27.621 4.92545 26 5.79553C24.9816 6.34219 23.9619 6.90485 23 7.54785L21 8.92746L19 10.4676C17.6259 11.6106 16.2924 12.7886 15.0147 14.0394C12.2341 16.7612 9.66541 19.729 7.54784 23C6.51173 24.6005 5.61098 26.2828 4.78549 28C3.84826 29.9497 3.04559 31.9501 2.35571 34C1.91168 35.3194 1.51073 36.6539 1.15586 38C0.808148 39.3189 0.494855 40.6488 0.300154 42C0.060951 43.66 0.0238799 45.3259 0.00385802 47L0 52L0 66L0 102L0 381L0 447L0 461L0.00385802 465L0.0393519 467C0.0921526 468.006 0.156286 469.002 0.300154 470C0.494834 471.351 0.808196 472.681 1.15586 474C1.42133 475.007 1.71312 476.008 2.02855 477C3.61037 481.977 5.8426 486.771 8.92747 491C10.7468 493.494 12.81 495.802 15.0147 497.961C17.468 500.362 20.1147 502.584 23 504.452C24.6005 505.488 26.2828 506.389 28 507.215C30.2663 508.304 32.604 509.21 35 509.971C35.9925 510.287 36.993 510.579 38 510.844C39.3188 511.192 40.649 511.505 42 511.7C43.9903 511.987 45.9938 511.99 48 511.999L53 512L70 512L124 512L359 512L434 512L457 512L463 512L467 511.961L469 511.826C470.009 511.737 471.011 511.541 472 511.331C473.688 510.973 475.356 510.494 477 509.971C478.349 509.543 479.688 509.077 481 508.547C482.016 508.137 483.008 507.679 484 507.215C485.017 506.738 486.024 506.218 487 505.662C490.669 503.571 493.973 500.91 496.985 497.961C499.766 495.239 502.335 492.271 504.452 489C505.488 487.4 506.389 485.717 507.215 484C508.152 482.05 508.954 480.05 509.644 478C510.088 476.681 510.489 475.346 510.844 474C511.192 472.681 511.505 471.351 511.7 470C511.939 468.34 511.976 466.674 511.996 465L512 460L512 446L512 410L512 130L512 65L512 51L511.996 47L511.961 45C511.908 43.9937 511.844 42.9984 511.7 42C511.505 40.649 511.192 39.3187 510.844 38C510.579 36.9932 510.287 35.9924 509.971 35C509.542 33.6494 509.062 32.3199 508.547 31L507.688 29C507.082 27.6316 506.368 26.3177 505.662 25L504.452 23L503.779 22L502.319 20C500.69 17.8851 498.893 15.9065 496.985 14.0394C494.532 11.6377 491.885 9.41574 489 7.54785C487.4 6.51175 485.717 5.61099 484 4.78549C481.734 3.69604 479.396 2.79007 477 2.02856C476.007 1.7131 475.007 1.42136 474 1.15588C472.681 0.808228 471.351 0.494812 470 0.30014C468.01 0.0133362 466.006 0.010437 464 0.000762939L459 0L441 0L386 0L154 0L79 0L55 0L48 0.000762939C46.6668 0.00720215 45.3309 -0.00280762 44 0.090271C42.9917 0.160797 41.9948 0.285461 41 0.464508z"/>
<path style="fill:#000000; stroke:none;" d="M471 0L472.086 0.686737L472.517 0.824066L473.321 1.16589C475.215 1.79901 477.132 2.35532 479 3.06558C480.013 3.45068 481.014 3.8638 482 4.3125C483.015 4.77405 484.008 5.27692 485 5.78473C486.019 6.3063 487.027 6.86389 488 7.46759C489.391 8.33099 490.753 9.26526 492 10.3287L493 11.1852C494.365 12.4207 495.692 13.6935 496.985 15.0038C497.951 15.9815 498.923 16.9644 499.826 18L501.532 20C502.557 21.2969 503.553 22.6115 504.452 24C505.884 26.2119 507.088 28.5807 508.127 31C508.552 31.9879 508.932 32.989 509.301 33.9985L509.957 35.9753L510.481 37.8395L510.684 38.8411L510.802 39.3287L511 41L511.585 39.9136L511.642 39.483L511.84 38.679L511.966 36.9413L511.999 33.9992L512 27L512 0L471 0z"/>
<path style="fill:#ff0000; stroke:none;" d="M20 9L21 10L20 9M491 9L492 10L491 9z"/>
<path style="fill:#ac9552; stroke:none;" d="M345 99L346.06 99.5849L346.472 99.642L347.16 99.8395L348.39 99.9645L350 100L348.94 99.4151L348.528 99.358L347.84 99.1605L346.61 99.0355L345 99z"/>
<path style="fill:#7d6d42; stroke:none;" d="M342 100L343 101L342 100z"/>
<path style="fill:#222222; stroke:none;" d="M337 247L338.059 248.671L338.256 249.159L338.735 250.16C339.443 252.086 340.031 254.051 340.67 256L343.667 265C344.231 266.675 344.801 268.346 345.425 270L347.4 275C348.338 277.346 349.257 279.702 350.309 282C351.081 283.687 351.924 285.341 352.753 287L354.782 291C355.318 292.014 355.862 293.025 356.468 294C358.461 297.209 360.922 300.144 364.004 302.362L366 303.633L367 304.16L369 305.03C369.978 305.383 370.971 305.636 372 305.787C372.992 305.932 373.999 305.963 375 305.981C376.338 306.004 377.669 305.941 379 305.815L380 305.671C381.018 305.519 382.036 305.22 383 304.867L385 304L386 303.467L387 302.867L389 301.468L390 300.671L391 299.815L392.996 297.96C394.314 296.69 395.573 295.366 396.79 294L397.621 293C398.404 292.057 399.09 291.029 399.753 290C400.583 288.711 401.341 287.369 402.03 286C402.689 284.691 403.261 283.342 403.846 282C404.569 280.344 405.295 278.69 405.936 277C406.686 275.023 407.331 273.006 408 271L413.333 255L419.333 237L421.333 231L422.692 227L425.308 220L428.692 210C429.391 208.038 430.171 206.107 430.91 204.16L431.454 202.671L432 201L432.585 202.671L432.642 203.159L432.84 204.16L432.966 206.025L432.999 209L433 214L433 223L432.996 226C432.987 227 432.979 228.001 432.91 229C432.842 230.007 432.715 231.001 432.576 232L432.17 235C431.949 237.325 432.001 239.668 432 242L432 260L432 266C431.999 267.332 432.019 268.669 431.961 270C431.917 271.006 431.838 272.001 431.715 273L431.424 275L431.17 277C431.024 278.327 431.02 279.667 431.004 281L431 285L431 293L431 315L431 323L430.985 328L430.91 330L430.715 332L430.17 336C430.011 337.664 430.011 339.331 430.001 341L430 345L430 356L430.004 360C430.013 361 430.021 362.002 430.09 363C430.227 365.015 430.619 366.994 430.834 369L431.166 373C431.364 374.675 431.64 376.337 431.921 378L432.45 381C432.654 382.007 432.889 383.009 433.159 384C433.433 385.008 433.722 386.022 434.09 387L434.465 388L435.324 390C435.814 391.014 436.312 392.022 436.88 392.996C437.659 394.334 438.5 395.648 439.529 396.811C440.297 397.678 441.144 398.457 442.093 399.121L444.015 400.231L445.004 400.655L446.001 401.003L448 401.481L450 401.655C451.013 401.667 452.002 401.516 453 401.367L454 401.177L456 400.699L457 400.401L459 399.637C460.027 399.157 461.025 398.651 462 398.069C464.084 396.827 466.067 395.368 467.829 393.699C469.35 392.259 470.689 390.638 471.985 388.996C473.249 387.394 474.47 385.752 475.522 384L476.626 382L477.11 381L477.981 379C478.535 377.697 478.998 376.359 479.394 375C479.774 373.699 479.936 372.338 480.123 371C480.353 369.348 480.606 367.673 480.54 366L480.33 364L480.137 363L479.887 362L479.575 361L479.182 360L478.126 358C477.499 356.953 476.739 355.994 476.035 355L474.663 353L473.569 351C472.976 349.725 472.581 348.38 472.326 347C472.081 345.678 472.007 344.333 471.845 343L471.576 341C471.43 340.002 471.264 339.005 471.17 338C470.983 336.005 470.983 333.995 471.17 332C471.264 330.995 471.431 329.999 471.576 329L471.83 327C471.975 325.677 471.999 324.329 471.957 323C471.925 321.995 471.838 320.998 471.715 320L471.285 317C471.156 316.002 471.083 315.005 471.039 314C470.981 312.669 471.001 311.332 471 310L471 304L471 286L471 262L471 254C471.001 252.335 470.966 250.664 471.039 249C471.083 247.995 471.156 246.998 471.285 246L471.715 243L471.91 241C472.024 239.337 471.997 237.666 472 236L472 230C472.001 228.668 471.981 227.331 472.039 226C472.083 224.995 472.156 223.997 472.285 223L472.715 220L472.91 218C473.024 216.337 472.997 214.666 473 213L473 205C473.003 202.999 472.98 200.995 473.17 199L473.576 196C473.715 195.001 473.842 194.007 473.91 193C473.979 192.002 473.987 191 473.996 190L474 187L474 177L474 171C473.997 169.334 474.024 167.663 473.91 166C473.75 163.652 473.25 161.348 473.09 159C472.998 157.669 473.004 156.333 473.001 155L473 149C472.999 147.668 473.019 146.331 472.961 145C472.917 143.994 472.838 142.999 472.715 142L472.166 138L471.834 134L471.166 129C470.987 127.334 470.959 125.654 470.675 124C470.382 122.295 469.89 120.621 469.289 119C468.655 117.29 467.912 115.598 466.867 114.094C465.809 112.573 464.525 111.24 462.907 110.314C461.707 109.628 460.351 109.223 458.999 108.968C458.002 108.779 457.009 108.63 456 108.519L454 108.471L453 108.557L451 108.943C447.28 109.872 443.935 111.909 441 114.329C439.243 115.777 437.612 117.384 436.015 119.004C434.439 120.602 432.908 122.236 431.518 124C430.504 125.286 429.587 126.644 428.671 128L426.003 132C425.134 133.321 424.257 134.64 423.45 136L420.579 141C419.817 142.33 419.03 143.647 418.309 145C417.428 146.652 416.59 148.326 415.753 150C414.924 151.659 414.083 153.314 413.309 155L411.579 159L409.424 164C408.312 166.651 407.267 169.331 406.2 172C405.268 174.33 404.311 176.652 403.425 179L400.947 186L399.053 191L396.947 197L394.692 203L393 208L391 214L389.358 218.84L388.958 219.841L388.783 220.329L388 222L387.466 220.329L386 215.995L383.333 208C382.557 205.67 381.754 203.346 381.025 201C380.305 198.681 379.673 196.334 379 194L377.579 189C377.009 187.001 376.413 185.011 375.884 183L373.849 175L372.151 169L370.627 163L368.884 156L367.349 149L365.651 142C365.271 140.34 364.937 138.67 364.6 137L363.804 133C363.553 131.671 363.318 130.344 363.156 129L362.845 126L362.169 121C362.003 119.337 362.016 117.661 361.827 116C361.595 113.958 361.145 111.937 360.451 110L359.647 108.004L358.633 106.043L357.362 104.214L355.787 102.653L354.895 102.009L352.985 101.009C351.098 100.222 349.027 100.017 347 100.056L345 100.186L344 100.329L343 100.529L341 101.108L340 101.479C338.976 101.913 337.975 102.368 337 102.905C334.481 104.294 332.18 106.03 330.174 108.093C328.699 109.61 327.411 111.301 326.156 113C325.189 114.308 324.253 115.641 323.359 117C322.505 118.298 321.692 119.618 320.981 121C320.151 122.616 319.472 124.309 318.812 126C317.914 128.297 317.101 130.626 316.428 133C315.59 135.959 314.983 138.978 314.424 142L313.92 145L312.59 153L312.155 156L311.845 159L311.271 163L310.869 166C310.676 167.34 310.45 168.67 310.196 170C309.941 171.332 309.65 172.66 309.439 174L309.167 176C309.019 177.667 308.926 179.339 308.715 181L308.246 184L307.59 188L307.285 190C307.031 191.994 306.964 194.005 306.715 196L306.271 199L305.729 203L305.285 206L305.075 208L304.834 211L304.155 216L303.845 219L303.155 224L302.718 228L302.13 232L301.729 235L301.271 238L300.729 242L300.271 245L299.729 249L299.271 252L298.87 255L298.282 259L297.718 264L297.271 267L296.729 271L296.282 274L295.718 279L295.271 282L294.729 286L294.271 289L293.729 293L293.13 297L292.576 301L291.424 308L290.565 314L289.803 318L289.25 321C288.613 324.664 288.073 328.345 287.389 332L286.424 337L285.576 342L284.424 348L283.551 353L282.449 358C282.05 359.995 281.779 362.013 281.335 364C280.806 366.362 280.084 368.674 279.421 371L278.579 374L277.14 379L276.255 382L275.565 384C274.968 385.665 274.262 387.293 273.785 389L273.314 391L272.87 394L272.579 396L272.289 398L272.184 399L272.13 400L272.2 402L272.333 403L272.804 404.999C273.343 406.717 274.153 408.392 275.419 409.697L277.108 411.062L278.044 411.566L279.015 411.968L280.004 412.276L282 412.691C284.681 413.092 287.398 412.788 290 412.072C291.745 411.591 293.449 410.945 294.996 409.995L296.96 408.606L297.907 407.786L298.815 406.895L300.471 404.985L301.215 403.996C301.901 403.014 302.55 402.016 303.185 401L304.395 399C305.171 397.683 305.944 396.367 306.63 395C307.447 393.369 308.128 391.674 308.85 390C309.851 387.674 310.864 385.355 311.796 383C312.321 381.675 312.836 380.345 313.308 379L315.667 372C316.663 369.01 317.708 366.031 318.573 363C319.045 361.344 319.454 359.67 319.873 358L320.873 354L322.373 348C322.952 345.674 323.517 343.349 323.996 341L324.75 337L325.424 333C325.846 330.664 326.363 328.346 326.725 326L327.13 323L327.424 321L328.728 313L329.271 309L329.729 306L330.13 303L330.729 299L331.13 296L331.729 292L332.271 288L332.718 285L333.282 280L333.729 277L334.271 273L334.715 270L335.285 264L335.845 260L336.282 256L336.715 253.005L336.91 251.045C337.024 249.703 336.989 248.344 337 247z"/>
<path style="fill:#8c7b47; stroke:none;" d="M352 100L353 101L352 100z"/>
<path style="fill:#96824a; stroke:none;" d="M339 101L340 102L339 101z"/>
<path style="fill:#817143; stroke:none;" d="M354 101L355 102L354 101z"/>
<path style="fill:#95824a; stroke:none;" d="M337 102L338 103L337 102z"/>
<path style="fill:#807043; stroke:none;" d="M334 104L335 105L334 104z"/>
<path style="fill:#877645; stroke:none;" d="M358 105L359 106L358 105z"/>
<path style="fill:#6a5e3b; stroke:none;" d="M359 107L360 108L359 107z"/>
<path style="fill:#655a3a; stroke:none;" d="M451.667 108.333L451.667 108.667L452.333 108.667L452.333 108.333L451.667 108.333z"/>
<path style="fill:#4e4631; stroke:none;" d="M456 108L456.909 108.585L457.347 108.653L459 109L458.091 108.415L457.653 108.347L456 108z"/>
<path style="fill:#8d7b48; stroke:none;" d="M459 108L460 109L459 108z"/>
<path style="fill:#8c7b47; stroke:none;" d="M360 109L361 110L360 109z"/>
<path style="fill:#7d6e42; stroke:none;" d="M448 109L449 110L448 109z"/>
<path style="fill:#9a864c; stroke:none;" d="M462 109L463 110L462 109z"/>
<path style="fill:#7d6e42; stroke:none;" d="M446 110L447 111L446 110z"/>
<path style="fill:#595035; stroke:none;" d="M463 110L464 111L463 110z"/>
<path style="fill:#655a3a; stroke:none;" d="M327 111L328 112L327 111z"/>
<path style="fill:#a99251; stroke:none;" d="M444 111L445 112L444 111z"/>
<path style="fill:#94814a; stroke:none;" d="M326 112L327 113L326 112z"/>
<path style="fill:#776940; stroke:none;" d="M361.333 112.667L361.333 113.333L361.667 113.333L361.667 112.667L361.333 112.667z"/>
<path style="fill:#655a3a; stroke:none;" d="M443 112L444 113L443 112z"/>
<path style="fill:#645939; stroke:none;" d="M466 113L467 114L466 113z"/>
<path style="fill:#a48e50; stroke:none;" d="M440 114L441 115L440 114z"/>
<path style="fill:#b79e56; stroke:none;" d="M467 114L468 115L467 114z"/>
<path style="fill:#5c5336; stroke:none;" d="M324 115L325 116L324 115z"/>
<path style="fill:#8a7947; stroke:none;" d="M439 115L440 116L439 115z"/>
<path style="fill:#aa9352; stroke:none;" d="M323 116L324 117L323 116z"/>
<path style="fill:#6f623d; stroke:none;" d="M438 116L439 117L438 116z"/>
<path style="fill:#a79151; stroke:none;" d="M468 116L469 117L468 116z"/>
<path style="fill:#766840; stroke:none;" d="M176.667 117.333L176.667 117.667L177.333 117.667L177.333 117.333L176.667 117.333z"/>
<path style="fill:#222222; stroke:none;" d="M108 297L107.97 298.671L107.845 299.159L107.704 300.16L107.514 301.045C107.353 302.029 107.2 303.001 107.191 304.002C107.18 305.352 107.382 306.686 107.681 308C107.912 309.013 108.192 310.029 108.563 311C109.104 312.416 109.787 313.754 110.652 315C111.644 316.43 112.821 317.726 114.043 318.96C115.282 320.211 116.599 321.413 118 322.482L120 323.957C121.314 324.86 122.647 325.73 124 326.575C125.982 327.812 127.996 329 130 330.2L134 332.573C135.316 333.328 136.652 334.046 138 334.742L143 337.247L150 340.753C152.681 342.094 155.382 343.401 158 344.862C159.349 345.614 160.683 346.398 162 347.204C163.695 348.242 165.374 349.295 167 350.439C169.055 351.886 171.034 353.439 173 355.004C176.38 357.694 179.68 360.484 183 363.247L186 365.739C188.608 367.86 191.31 369.859 194 371.873C197.266 374.319 200.529 376.781 204 378.934C207.167 380.899 210.512 382.616 214 383.934C215.627 384.55 217.296 385.119 219 385.482L221 385.816L223 385.96L226 385.998C227.999 385.998 230.024 386.018 232 385.671C234.457 385.241 236.762 384.287 239 383.215C240.017 382.727 241.012 382.205 242 381.662L244 380.452L245 379.779C246.02 379.055 247.029 378.323 247.999 377.532C249.369 376.415 250.678 375.228 251.91 373.961C253.135 372.701 254.274 371.363 255.381 370C256.685 368.396 257.95 366.754 259.049 365C259.853 363.716 260.561 362.372 261.204 361C261.813 359.699 262.352 358.373 262.779 357C263.087 356.011 263.32 355.013 263.532 354L263.826 352C263.952 351.007 263.955 349.999 263.971 349C263.987 348.003 263.931 346.991 263.826 346C263.647 344.302 263.266 342.65 262.841 341C262.492 339.643 262.046 338.304 261.536 337C260.868 335.29 260.053 333.645 259.241 332C258.573 330.649 257.869 329.318 257.139 328L255.424 325L253.781 322L251.753 318C250.924 316.34 250.083 314.686 249.309 313L247.14 308L245.306 304L244.001 301L241.421 295L240.15 292L238.424 288L236.8 284L235.203 280L234.05 277L232.576 273L231.424 270L229.576 265L227.692 260C226.984 258.012 226.334 256.002 225.667 254L223 246L220.667 239L219.025 234L217.28 228L215.72 223L214.291 218L212.579 212L211.735 209L210.526 204L209.475 200L208.116 194L205.884 185L204.576 179L203.424 174L202.576 170L201.424 165C200.914 162.675 200.46 160.336 200.001 158L199.25 154L198.576 150L197.6 145L196.576 140C196.286 138.661 195.957 137.329 195.625 136C194.952 133.307 194.247 130.612 193.301 128L192.532 126L192.084 125.001L191.005 123.019L190.351 122.058L188.786 120.303L187.895 119.564L186.957 118.938L184.996 118.033L183 117.498L182 117.344L181 117.265L179 117.34L178 117.482L176 117.928L174 118.548L172 119.338L171 119.796C169.288 120.589 167.612 121.482 166 122.464C164.273 123.515 162.611 124.678 161 125.9C159.283 127.202 157.617 128.568 156.09 130.09C154.853 131.322 153.72 132.648 152.619 134.001C151.559 135.302 150.548 136.637 149.569 138C148.641 139.293 147.808 140.658 146.954 142L144.449 146L142.72 149C141.578 150.996 140.403 152.977 139.309 155L137.756 158L136.258 161L134.861 164L132.694 169L130.86 173L128.694 178L126.86 182L124.694 187L122.86 191L120.694 196L118.86 200L116.691 205L114.309 210L111.691 216L109.309 221L106.691 227C105.917 228.686 105.075 230.34 104.247 232L100.753 239L99.2585 242C98.6192 243.321 98.0059 244.652 97.4244 246C96.7006 247.677 96.0089 249.365 95.1914 251C94.3385 252.706 93.3663 254.343 92.4244 256C91.6746 257.319 90.9543 258.652 90.2585 260L87.7531 265L82.2469 276L79.7415 281L78.1389 284C77.017 286 75.8511 287.972 74.7809 290C72.8634 293.634 71.1366 297.366 69.2191 301C68.1489 303.028 66.9829 305 65.8611 307L64.2585 310L60.7415 317C60.0522 318.351 59.3217 319.679 58.5756 321L56.8495 324L53.9892 329L50.4275 335L47.1397 341L44.3086 346C43.4181 347.647 42.5901 349.326 41.7531 351C40.9232 352.66 40.0936 354.318 39.3086 356C38.6941 357.316 38.1498 358.665 37.5787 360L35.4498 365L34.6952 367L33.6713 370C33.2395 371.321 32.8232 372.647 32.5031 374C32.2683 374.992 32.1 375.996 31.9236 377L31.591 379L31.3009 381L31.2099 382L31.2284 384L31.3588 384.999L31.8943 386.985L32.858 388.891L33.5139 389.772L35.1335 391.258L37.0185 392.258L39.0008 392.772L40 392.89C40.9997 392.955 41.9979 392.997 43 392.953L45 392.786L46 392.606L47 392.351L49 391.583L51 390.518C52.0262 389.882 53.0233 389.221 53.9992 388.51L55.9853 386.985C57.2708 385.937 58.5332 384.876 59.7145 383.711C60.6079 382.829 61.4395 381.89 62.2816 380.961L64.0502 378.996C65.2303 377.68 66.4212 376.375 67.5332 375C68.5751 373.712 69.5527 372.373 70.4799 371C71.1428 370.018 71.7694 369.012 72.385 368C73.1852 366.685 73.9575 365.353 74.6914 364C75.9391 361.7 77.0768 359.34 78.2469 357L86.2469 341L100.247 313L104.247 305L106.651 300.16L107.099 299.159L107.34 298.671L108 297z"/>
<path style="fill:#72653e; stroke:none;" d="M183.667 117.333L183.667 117.667L184.333 117.667L184 117.333L183.667 117.333z"/>
<path style="fill:#b29a54; stroke:none;" d="M185 117L186 118L185 117z"/>
<path style="fill:#99864c; stroke:none;" d="M362.333 117.667L362.333 118.333L362.667 118.333L362.667 117.667L362.333 117.667z"/>
<path style="fill:#6e613c; stroke:none;" d="M437 117L438 118L437 117z"/>
<path style="fill:#8b7947; stroke:none;" d="M173 118L174 119L173 118z"/>
<path style="fill:#b9a057; stroke:none;" d="M187 118L188 119L187 118z"/>
<path style="fill:#75673f; stroke:none;" d="M322 118L323 119L322 118z"/>
<path style="fill:#70633d; stroke:none;" d="M436 118L437 119L436 118z"/>
<path style="fill:#b19954; stroke:none;" d="M469 118L470 119L469 118z"/>
<path style="fill:#645939; stroke:none;" d="M171 119L172 120L171 119z"/>
<path style="fill:#93814a; stroke:none;" d="M188 119L189 120L188 119z"/>
<path style="fill:#6d603c; stroke:none;" d="M362.333 119.667L362.333 120.333L362.667 120.333L362.667 119.667L362.333 119.667z"/>
<path style="fill:#72653e; stroke:none;" d="M435 119L436 120L435 119z"/>
<path style="fill:#675c3a; stroke:none;" d="M469 119L470 120L469 119z"/>
<path style="fill:#685c3a; stroke:none;" d="M169 120L170 121L169 120z"/>
<path style="fill:#938049; stroke:none;" d="M189 120L190 121L189 120z"/>
<path style="fill:#8b7a47; stroke:none;" d="M434 120L435 121L434 120z"/>
<path style="fill:#8e7c48; stroke:none;" d="M167 121L168 122L167 121z"/>
<path style="fill:#b89f57; stroke:none;" d="M190 121L191 122L190 121z"/>
<path style="fill:#b69d56; stroke:none;" d="M320 121L321 122L320 121z"/>
<path style="fill:#494330; stroke:none;" d="M362 121L362 124L362.579 123.125L362.579 122.199L362.579 121.875L362 121z"/>
<path style="fill:#a58f50; stroke:none;" d="M433 121L434 122L433 121z"/>
<path style="fill:#837344; stroke:none;" d="M470.333 121.667L470.333 122.333L470.667 122.333L470.667 121.667L470.333 121.667z"/>
<path style="fill:#b49c55; stroke:none;" d="M165 122L166 123L165 122z"/>
<path style="fill:#b9a057; stroke:none;" d="M432 122L433 123L432 122z"/>
<path style="fill:#615638; stroke:none;" d="M164 123L165 124L164 123z"/>
<path style="fill:#867545; stroke:none;" d="M191 123L192 124L191 123z"/>
<path style="fill:#584f35; stroke:none;" d="M319 124L320 125L319 124z"/>
<path style="fill:#94814a; stroke:none;" d="M161 125L162 126L161 125z"/>
<path style="fill:#9e8a4d; stroke:none;" d="M192 125L193 126L192 125z"/>
<path style="fill:#75673f; stroke:none;" d="M430 125L431 126L430 125z"/>
<path style="fill:#635939; stroke:none;" d="M160 126L161 127L160 126z"/>
<path style="fill:#847444; stroke:none;" d="M318 126L319 127L318 126z"/>
<path style="fill:#aa9452; stroke:none;" d="M363.333 126.667L363.333 127.333L363.667 127.333L363.667 126.667L363.333 126.667z"/>
<path style="fill:#a99351; stroke:none;" d="M429 126L430 127L429 126M471.333 126.667L471.333 127L471.667 127.333L471.667 126.667L471.333 126.667z"/>
<path style="fill:#7c6d42; stroke:none;" d="M193 128L194 129L193 128z"/>
<path style="fill:#776940; stroke:none;" d="M363.333 128.667L363.333 129.333L363.667 129.333L363.667 128.667L363.333 128.667z"/>
<path style="fill:#665b3a; stroke:none;" d="M428 128L429 129L428 128z"/>
<path style="fill:#776940; stroke:none;" d="M471.333 128.667L471.333 129.333L471.667 129.333L471.667 128.667L471.333 128.667z"/>
<path style="fill:#766840; stroke:none;" d="M317 129L318 130L317 129z"/>
<path style="fill:#ae9753; stroke:none;" d="M427 129L428 130L427 129z"/>
<path style="fill:#443e2e; stroke:none;" d="M363.333 130.667L363.333 131.333L363.667 131.333L363.667 130.667L363.333 130.667z"/>
<path style="fill:#47412f; stroke:none;" d="M471.333 130.667L471.333 131.333L471.667 131.333L471.667 130.667L471.333 130.667z"/>
<path style="fill:#7f7043; stroke:none;" d="M194 131L195 132L194 131z"/>
<path style="fill:#6c603c; stroke:none;" d="M426 131L427 132L426 131z"/>
<path style="fill:#8c7b47; stroke:none;" d="M316 132L317 133L316 132z"/>
<path style="fill:#b49c55; stroke:none;" d="M425 132L426 133L425 132z"/>
<path style="fill:#635939; stroke:none;" d="M152 134L153 135L152 134z"/>
<path style="fill:#71643e; stroke:none;" d="M195.333 134.667L195.333 135.333L195.667 135.333L195.667 134.667L195.333 134.667z"/>
<path style="fill:#867545; stroke:none;" d="M364 134L364 137L364.579 136.125L364.579 135.801L364.579 134.875L364 134z"/>
<path style="fill:#72653e; stroke:none;" d="M424 134L425 135L424 134z"/>
<path style="fill:#bfa559; stroke:none;" d="M472.333 134.667L472.333 135.333L472.667 135.333L472.667 134.667L472.333 134.667z"/>
<path style="fill:#8f7d48; stroke:none;" d="M151 135L152 136L151 135z"/>
<path style="fill:#8b7a47; stroke:none;" d="M315.333 135.667L315.333 136L315.667 136.333L315.667 135.667L315.333 135.667z"/>
<path style="fill:#b69d56; stroke:none;" d="M150 136L151 137L150 136z"/>
<path style="fill:#99854c; stroke:none;" d="M472.333 136.667L472.333 137.333L472.667 137.333L472.667 136.667L472.333 136.667z"/>
<path style="fill:#a08b4e; stroke:none;" d="M422 137L423 138L422 137z"/>
<path style="fill:#7e6f42; stroke:none;" d="M196.333 138.667L196.333 139L196.667 139.333L196.667 139L196.333 138.667z"/>
<path style="fill:#73663e; stroke:none;" d="M472 138L472 141L472.579 140.125L472.579 139.801L472.579 138.875L472 138z"/>
<path style="fill:#9e8a4d; stroke:none;" d="M148 139L149 140L148 139z"/>
<path style="fill:#877645; stroke:none;" d="M365 139L365 142L365.579 141.125L365.579 140.801L365.579 139.875L365 139z"/>
<path style="fill:#7d6e42; stroke:none;" d="M421 139L422 140L421 139z"/>
<path style="fill:#7c6d41; stroke:none;" d="M314.333 140.667L314.333 141L314.667 141.333L314.667 140.667L314.333 140.667z"/>
<path style="fill:#5c5236; stroke:none;" d="M147 141L148 142L147 141z"/>
<path style="fill:#5b5136; stroke:none;" d="M420 141L421 142L420 141z"/>
<path style="fill:#a38e4f; stroke:none;" d="M146 142L147 143L146 142z"/>
<path style="fill:#b29a54; stroke:none;" d="M419 142L420 143L419 142z"/>
<path style="fill:#75673f; stroke:none;" d="M197.333 143.667L197.333 144.333L197.667 144.333L197.667 143.667L197.333 143.667z"/>
<path style="fill:#70633d; stroke:none;" d="M145 144L146 145L145 144z"/>
<path style="fill:#786940; stroke:none;" d="M366.333 144.667L366.333 145.333L366.667 145.333L366.667 144.667L366.333 144.667z"/>
<path style="fill:#98854b; stroke:none;" d="M418 144L419 145L418 144z"/>
<path style="fill:#877645; stroke:none;" d="M313 145L313 148L313.579 147.125L313.579 146.801L313.579 145.875L313 145z"/>
<path style="fill:#ceb25e; stroke:none;" d="M473.333 145.667L473.333 146.333L473.667 146.333L473.667 145.667L473.333 145.667z"/>
<path style="fill:#95824a; stroke:none;" d="M417 146L418 147L417 146z"/>
<path style="fill:#9e8a4e; stroke:none;" d="M143 147L144 148L143 147z"/>
<path style="fill:#96834b; stroke:none;" d="M473 147L473 153L473.582 151.918L473.628 151.502L473.806 150.738L473.806 149.262L473.628 148.498L473.582 148.082L473 147z"/>
<path style="fill:#807043; stroke:none;" d="M198.333 148.667L198.333 149.333L198.667 149.333L198.667 149L198.333 148.667z"/>
<path style="fill:#8e7c48; stroke:none;" d="M367.333 148.667L367.333 149L367.667 149.333L367.667 148.667L367.333 148.667z"/>
<path style="fill:#907d48; stroke:none;" d="M416 148L417 149L416 148z"/>
<path style="fill:#796a41; stroke:none;" d="M142 149L143 150L142 149z"/>
<path style="fill:#a79151; stroke:none;" d="M312.333 150.667L312.333 151.333L312.667 151.333L312.667 151L312.333 150.667z"/>
<path style="fill:#8c7b47; stroke:none;" d="M415 150L416 151L415 150z"/>
<path style="fill:#615638; stroke:none;" d="M141 151L142 152L141 151z"/>
<path style="fill:#685d3b; stroke:none;" d="M312.333 152.667L312.333 153.333L312.667 153.333L312.667 152.667L312.333 152.667z"/>
<path style="fill:#867545; stroke:none;" d="M414 152L415 153L414 152z"/>
<path style="fill:#8b7a47; stroke:none;" d="M199 153L199 156L199.579 155.125L199.579 154.801L199.579 153.875L199 153z"/>
<path style="fill:#70633d; stroke:none;" d="M368.333 153.667L368.333 154.333L368.667 154.333L368.667 153.667L368.333 153.667z"/>
<path style="fill:#595035; stroke:none;" d="M473 153L473 157L473.549 155.975L473.549 155.62L473.679 155L473.549 154.025L473 153z"/>
<path style="fill:#b19954; stroke:none;" d="M139 154L140 155L139 154z"/>
<path style="fill:#97844b; stroke:none;" d="M413 154L414 155L413 154z"/>
<path style="fill:#a48f50; stroke:none;" d="M138 156L139 157L138 156z"/>
<path style="fill:#ac9553; stroke:none;" d="M412 156L413 157L412 156z"/>
<path style="fill:#9d884d; stroke:none;" d="M311 157L311 160L311.579 159.125L311.579 158.801L311.579 157.875L311 157z"/>
<path style="fill:#74673f; stroke:none;" d="M369.333 157.667L369.333 158.333L369.667 158.333L369.667 158L369.333 157.667z"/>
<path style="fill:#39352a; stroke:none;" d="M473 157L473 163L473.582 161.918L473.628 161.502L473.806 160.738L473.806 159.262L473.628 158.498L473.582 158.082L473 157z"/>
<path style="fill:#9c884d; stroke:none;" d="M137 158L138 159L137 158z"/>
<path style="fill:#96834b; stroke:none;" d="M200 158L200 161L200.579 160.125L200.579 159.199L200.579 158.875L200 158z"/>
<path style="fill:#655a3a; stroke:none;" d="M411 159L412 160L411 159z"/>
<path style="fill:#a08b4e; stroke:none;" d="M136 160L137 161L136 160z"/>
<path style="fill:#453f2e; stroke:none;" d="M311.333 160.667L311.333 161.333L311.667 161.333L311.667 161L311.333 160.667z"/>
<path style="fill:#776940; stroke:none;" d="M370.333 161.667L370.333 162L370.667 162.333L370.667 161.667L370.333 161.667z"/>
<path style="fill:#7b6c41; stroke:none;" d="M410 161L411 162L410 161z"/>
<path style="fill:#a69050; stroke:none;" d="M135 162L136 163L135 162z"/>
<path style="fill:#94814a; stroke:none;" d="M201 163L201 166L201.579 165.125L201.579 164.199L201.579 163.875L201 163z"/>
<path style="fill:#99854c; stroke:none;" d="M409 163L410 164L409 163z"/>
<path style="fill:#aa9352; stroke:none;" d="M134 164L135 165L134 164z"/>
<path style="fill:#9a864c; stroke:none;" d="M310 164L310 167L310.579 166.125L310.579 165.801L310.579 164.875L310 164z"/>
<path style="fill:#74663f; stroke:none;" d="M371.333 165.667L371.333 166.333L371.667 166.333L371.667 165.667L371.333 165.667z"/>
<path style="fill:#b69d56; stroke:none;" d="M133 166L134 167L133 166z"/>
<path style="fill:#6a5e3b; stroke:none;" d="M408 166L409 167L408 166z"/>
<path style="fill:#5b5236; stroke:none;" d="M133 167L134 168L133 167z"/>
<path style="fill:#413c2d; stroke:none;" d="M310.333 167.667L310.333 168L310.667 168.333L310.667 167.667L310.333 167.667z"/>
<path style="fill:#c8ad5d; stroke:none;" d="M474 167L474 188L474.585 186.914L474.642 186.483L474.84 185.679C474.944 184.784 474.964 183.881 474.986 182.981L475 178L474.997 173.005C474.982 171.776 474.982 170.543 474.84 169.321L474.642 168.517L474.585 168.086L474 167z"/>
<path style="fill:#837344; stroke:none;" d="M202.333 168.667L202.333 169L202.667 169.333L202.667 169L202.333 168.667z"/>
<path style="fill:#917e49; stroke:none;" d="M407 168L408 169L407 168z"/>
<path style="fill:#73653e; stroke:none;" d="M132 169L133 170L132 169z"/>
<path style="fill:#71643e; stroke:none;" d="M372.333 169.667L372.333 170.333L372.667 170.333L372.667 169.667L372.333 169.667z"/>
<path style="fill:#8b7947; stroke:none;" d="M131 171L132 172L131 171z"/>
<path style="fill:#96834b; stroke:none;" d="M309 171L309 174L309.579 173.125L309.579 172.801L309.579 171.875L309 171z"/>
<path style="fill:#6a5e3b; stroke:none;" d="M406 171L407 172L406 171z"/>
<path style="fill:#a18b4e; stroke:none;" d="M130 173L131 174L130 173z"/>
<path style="fill:#74663f; stroke:none;" d="M203.333 173.667L203.333 174.333L203.667 174.333L203.667 174L203.333 173.667z"/>
<path style="fill:#9d894d; stroke:none;" d="M373 173L374 174L373 173z"/>
<path style="fill:#95824a; stroke:none;" d="M405 173L406 174L405 173z"/>
<path style="fill:#b9a057; stroke:none;" d="M129 175L130 176L129 175z"/>
<path style="fill:#5e5437; stroke:none;" d="M129 176L130 177L129 176z"/>
<path style="fill:#73663e; stroke:none;" d="M404 176L405 177L404 176z"/>
<path style="fill:#8e7c48; stroke:none;" d="M204.333 177.667L204.333 178.333L204.667 178.333L204.667 178L204.333 177.667z"/>
<path style="fill:#927f49; stroke:none;" d="M374 177L375 178L374 177z"/>
<path style="fill:#75673f; stroke:none;" d="M128 178L129 179L128 178z"/>
<path style="fill:#9b874c; stroke:none;" d="M308 178L308 181L308.579 180.125L308.579 179.199L308.579 178.875L308 178z"/>
<path style="fill:#a18c4f; stroke:none;" d="M403 178L404 179L403 178z"/>
<path style="fill:#8e7c47; stroke:none;" d="M127 180L128 181L127 180z"/>
<path style="fill:#47412f; stroke:none;" d="M308.333 181.667L308.333 182L308.667 182.333L308.667 182L308.333 181.667z"/>
<path style="fill:#847444; stroke:none;" d="M375 181L376 182L375 181z"/>
<path style="fill:#867645; stroke:none;" d="M402 181L403 182L402 181z"/>
<path style="fill:#a48e50; stroke:none;" d="M126 182L127 183L126 182z"/>
<path style="fill:#74663e; stroke:none;" d="M205.333 182.667L205.333 183.333L205.667 183.333L205.667 183L205.333 182.667z"/>
<path style="fill:#a89251; stroke:none;" d="M376 184L377 185L376 184z"/>
<path style="fill:#6e623d; stroke:none;" d="M401 184L402 185L401 184z"/>
<path style="fill:#615738; stroke:none;" d="M125 185L126 186L125 185z"/>
<path style="fill:#a48e50; stroke:none;" d="M307.333 185.667L307.333 186L307.667 186.333L307.667 185.667L307.333 185.667z"/>
<path style="fill:#71643e; stroke:none;" d="M376 185L377 186L376 185z"/>
<path style="fill:#7a6c41; stroke:none;" d="M206.333 186.667L206.333 187L206.667 187.333L206.667 186.667L206.333 186.667z"/>
<path style="fill:#a48e50; stroke:none;" d="M400 186L401 187L400 186z"/>
<path style="fill:#776940; stroke:none;" d="M124 187L125 188L124 187z"/>
<path style="fill:#6c603c; stroke:none;" d="M307.333 187.667L307.333 188L307.667 188.333L307.667 188L307.333 187.667z"/>
<path style="fill:#595035; stroke:none;" d="M400 187L401 188L400 187z"/>
<path style="fill:#94814a; stroke:none;" d="M377 188L378 189L377 188z"/>
<path style="fill:#8f7d48; stroke:none;" d="M123 189L124 190L123 189z"/>
<path style="fill:#907e48; stroke:none;" d="M399 189L400 190L399 189z"/>
<path style="fill:#807143; stroke:none;" d="M207.333 190.667L207.333 191.333L207.667 191.333L207.667 191L207.333 190.667z"/>
<path style="fill:#a69050; stroke:none;" d="M122 191L123 192L122 191z"/>
<path style="fill:#b09954; stroke:none;" d="M378 191L379 192L378 191z"/>
<path style="fill:#b09854; stroke:none;" d="M306.333 192.667L306.333 193.333L306.667 193.333L306.667 192.667L306.333 192.667z"/>
<path style="fill:#75673f; stroke:none;" d="M378 192L379 193L378 192z"/>
<path style="fill:#7e6f42; stroke:none;" d="M398 192L399 193L398 192z"/>
<path style="fill:#635939; stroke:none;" d="M121 194L122 195L121 194z"/>
<path style="fill:#877645; stroke:none;" d="M208.333 194.667L208.333 195.333L208.667 195.333L208.667 195L208.333 194.667z"/>
<path style="fill:#7c6d41; stroke:none;" d="M306.333 194.667L306.333 195L306.667 195.333L306.667 195L306.333 194.667z"/>
<path style="fill:#b89f56; stroke:none;" d="M397 194L398 195L397 194z"/>
<path style="fill:#917f49; stroke:none;" d="M379 195L380 196L379 195z"/>
<path style="fill:#6e623d; stroke:none;" d="M397 195L398 196L397 195z"/>
<path style="fill:#786a40; stroke:none;" d="M120 196L121 197L120 196z"/>
<path style="fill:#47412f; stroke:none;" d="M306.333 196.667L306.333 197L306.667 197.333L306.667 196.667L306.333 196.667z"/>
<path style="fill:#554c34; stroke:none;" d="M473 196L473 205L473.585 203.914L473.642 203.483L473.839 202.68L473.952 200.96L473.952 200.04L473.839 198.32L473.642 197.517L473.585 197.086L473 196z"/>
<path style="fill:#a79151; stroke:none;" d="M396 197L397 198L396 197z"/>
<path style="fill:#8e7c48; stroke:none;" d="M119 198L120 199L119 198z"/>
<path style="fill:#a69050; stroke:none;" d="M380 198L381 199L380 198z"/>
<path style="fill:#605638; stroke:none;" d="M396 198L397 199L396 198z"/>
<path style="fill:#5c5336; stroke:none;" d="M209.333 199.667L209.333 200L209.667 200.333L209.667 199.667L209.333 199.667z"/>
<path style="fill:#685c3b; stroke:none;" d="M380 199L381 200L380 199z"/>
<path style="fill:#a18c4e; stroke:none;" d="M118 200L119 201L118 200z"/>
<path style="fill:#ab9452; stroke:none;" d="M305.333 200.667L305.333 201.333L305.667 201.333L305.667 200.667L305.333 200.667z"/>
<path style="fill:#9e894d; stroke:none;" d="M395 200L396 201L395 200z"/>
<path style="fill:#b9a057; stroke:none;" d="M381 201L382 202L381 201z"/>
<path style="fill:#6a5e3b; stroke:none;" d="M432 201L431.727 202.671L431.763 203.159L431.742 204.16L431.807 205.045L431.964 208L431.999 210.955L432 215L432.585 213.914L432.642 213.483L432.84 212.679L432.966 210.941L432.998 208L432.966 205.059L432.84 203.321L432.642 202.517L432.585 202.086L432 201z"/>
<path style="fill:#b69e56; stroke:none;" d="M117 202L118 203L117 202z"/>
<path style="fill:#766840; stroke:none;" d="M305 202L305 205L305.579 204.125L305.579 203.199L305.579 202.875L305 202z"/>
<path style="fill:#7b6c41; stroke:none;" d="M381 202L382 203L381 202z"/>
<path style="fill:#5b5236; stroke:none;" d="M117 203L118 204L117 203z"/>
<path style="fill:#8c7a47; stroke:none;" d="M210 203L211 204L210 203z"/>
<path style="fill:#927f49; stroke:none;" d="M394 203L395 204L394 203z"/>
<path style="fill:#70633d; stroke:none;" d="M116 205L117 206L116 205z"/>
<path style="fill:#897846; stroke:none;" d="M382 205L383 206L382 205z"/>
<path style="fill:#938049; stroke:none;" d="M430 205L431 206L430 205z"/>
<path style="fill:#8e7c48; stroke:none;" d="M473 205L473 213L473.585 211.914L473.641 211.484L473.836 210.684L473.932 209L473.836 207.316L473.641 206.516L473.585 206.086L473 205z"/>
<path style="fill:#b39b55; stroke:none;" d="M211 206L212 207L211 206z"/>
<path style="fill:#8b7a47; stroke:none;" d="M393 206L394 207L393 206z"/>
<path style="fill:#847444; stroke:none;" d="M115 207L116 208L115 207z"/>
<path style="fill:#46402f; stroke:none;" d="M211.333 207.667L211.333 208L211.667 208.333L211.667 208L211.333 207.667z"/>
<path style="fill:#5a5135; stroke:none;" d="M429 207L430 208L429 207z"/>
<path style="fill:#a89251; stroke:none;" d="M304.333 208.667L304.333 209L304.667 209.333L304.667 209L304.333 208.667z"/>
<path style="fill:#917f49; stroke:none;" d="M383 208L384 209L383 208z"/>
<path style="fill:#a48e50; stroke:none;" d="M429 208L430 209L429 208z"/>
<path style="fill:#98844b; stroke:none;" d="M114 209L115 210L114 209z"/>
<path style="fill:#837344; stroke:none;" d="M392 209L393 210L392 209z"/>
<path style="fill:#71643e; stroke:none;" d="M212.333 210.667L212.333 211.333L212.667 211.333L212.667 210.667L212.333 210.667z"/>
<path style="fill:#776940; stroke:none;" d="M304.333 210.667L304.333 211L304.667 211.333L304.667 210.667L304.333 210.667z"/>
<path style="fill:#6b5f3b; stroke:none;" d="M428 210L429 211L428 210z"/>
<path style="fill:#aa9452; stroke:none;" d="M113 211L114 212L113 211z"/>
<path style="fill:#94814a; stroke:none;" d="M384 211L385 212L384 211z"/>
<path style="fill:#b49c55; stroke:none;" d="M428 211L429 212L428 211z"/>
<path style="fill:#45402e; stroke:none;" d="M304.333 212.667L304.333 213.333L304.667 213.333L304.667 212.667L304.333 212.667z"/>
<path style="fill:#786a40; stroke:none;" d="M391 212L392 213L391 212z"/>
<path style="fill:#645939; stroke:none;" d="M153.667 213.333L153.667 213.667L154.333 213.667L154.333 213.333L153.667 213.333z"/>
<path style="fill:#7b6c41; stroke:none;" d="M427 213L428 214L427 213z"/>
<path style="fill:#d8ba62; stroke:none;" d="M473 213L473 219L473.582 217.918L473.628 217.502L473.806 216.738L473.806 215.262L473.628 214.498L473.582 214.082L473 213z"/>
<path style="fill:#625738; stroke:none;" d="M112 214L113 215L112 214z"/>
<path style="fill:#907e49; stroke:none;" d="M153.667 214.333L153.667 214.667L154.333 214.667L154.333 214.333L153.667 214.333z"/>
<path style="fill:#625738; stroke:none;" d="M213.333 214.667L213.333 215.333L213.667 215.333L213.667 215L213.333 214.667z"/>
<path style="fill:#907e49; stroke:none;" d="M385 214L386 215L385 214z"/>
<path style="fill:#b29a54; stroke:none;" d="M390 214L391 215L390 214z"/>
<path style="fill:#efcd6a; stroke:none;" d="M153 215L152.142 216.671L151.863 217.159C150.98 218.766 150.097 220.371 149.258 222.002L147.753 225L145.247 230L143.219 234L141.576 237L139.309 241L136.691 246L133.309 252L131.745 255L130.139 258L128.421 261L126.15 265L124.424 268L123.306 270L121.694 273L118.905 277.975L118 279.84L117.429 281.329L117 283L118.671 281.929L119.159 281.522L120.16 280.769L123.005 278.449C125.524 276.472 128.154 274.615 131 273.134C133.208 271.986 135.563 271.047 138 270.519C139.976 270.09 141.984 270.008 144 270.008C145.671 270.007 147.345 270.057 149 270.301C150.701 270.552 152.366 270.99 154 271.52C155.012 271.849 156.009 272.227 157 272.615C158.349 273.143 159.682 273.708 161 274.309L163.995 275.741L166.84 277.028L168.329 277.574L170 278L169.802 276.329L169.685 275.841L169.485 274.84L168.151 270L166.849 265L165.424 260C164.595 257.017 163.877 254.003 163.127 251L159.127 235L157.651 229L156.576 224C156.146 222.054 155.651 220.124 155.301 218.16L155.099 216.671L155 215L153 215z"/>
<path style="fill:#6e623c; stroke:none;" d="M390 215L391 216L390 215z"/>
<path style="fill:#514932; stroke:none;" d="M432 215L432 233L432.585 231.914L432.642 231.483L432.84 230.679C432.944 229.783 432.958 228.882 432.986 227.981L433 224L432.986 220.019C432.958 219.118 432.944 218.217 432.84 217.321L432.642 216.517L432.585 216.086L432 215z"/>
<path style="fill:#74673f; stroke:none;" d="M111 216L112 217L111 216z"/>
<path style="fill:#b9a057; stroke:none;" d="M152 216L153 217L152 216z"/>
<path style="fill:#b09854; stroke:none;" d="M303.333 216.667L303.333 217.333L303.667 217.333L303.667 216.667L303.333 216.667z"/>
<path style="fill:#847444; stroke:none;" d="M426 216L427 217L426 216z"/>
<path style="fill:#887746; stroke:none;" d="M386 217L387 218L386 217z"/>
<path style="fill:#af9853; stroke:none;" d="M389 217L390 218L389 217z"/>
<path style="fill:#867645; stroke:none;" d="M110 218L111 219L110 218z"/>
<path style="fill:#a08b4e; stroke:none;" d="M155.333 218.667L155.333 219.333L155.667 219.333L155.667 219L155.333 218.667z"/>
<path style="fill:#8c7a47; stroke:none;" d="M214 218L215 219L214 218z"/>
<path style="fill:#7f6f42; stroke:none;" d="M303.333 218.667L303.333 219.333L303.667 219.333L303.667 218.667L303.333 218.667z"/>
<path style="fill:#6b5f3b; stroke:none;" d="M389 218L390 219L389 218z"/>
<path style="fill:#585035; stroke:none;" d="M150 219L151 220L150 219z"/>
<path style="fill:#8f7d48; stroke:none;" d="M425 219L426 220L425 219z"/>
<path style="fill:#99854c; stroke:none;" d="M109 220L110 221L109 220z"/>
<path style="fill:#4d4631; stroke:none;" d="M303.333 220.667L303.333 221L303.667 221.333L303.667 220.667L303.333 220.667z"/>
<path style="fill:#ad9653; stroke:none;" d="M387.667 220.333L387.667 220.667L388.333 220.667L388.333 220.333L387.667 220.333z"/>
<path style="fill:#5e5437; stroke:none;" d="M149 221L150 222L149 221z"/>
<path style="fill:#b39b55; stroke:none;" d="M215 221L216 222L215 221z"/>
<path style="fill:#695d3b; stroke:none;" d="M388 221L389 222L388 221z"/>
<path style="fill:#4a4430; stroke:none;" d="M472 221L472 226L472.57 224.933L472.608 224.542L472.746 223.183L472.608 222.458L472.57 222.067L472 221z"/>
<path style="fill:#a99351; stroke:none;" d="M108 222L109 223L108 222z"/>
<path style="fill:#8c7b47; stroke:none;" d="M156.333 222.667L156.333 223.333L156.667 223.333L156.667 223L156.333 222.667z"/>
<path style="fill:#776940; stroke:none;" d="M215 222L216 223L215 222z"/>
<path style="fill:#97834b; stroke:none;" d="M424 222L425 223L424 222z"/>
<path style="fill:#665b3a; stroke:none;" d="M148 223L149 224L148 223z"/>
<path style="fill:#b69d56; stroke:none;" d="M302.333 224.667L302.333 225L302.667 225.333L302.667 224.667L302.333 224.667z"/>
<path style="fill:#595035; stroke:none;" d="M423 224L424 225L423 224z"/>
<path style="fill:#5e5437; stroke:none;" d="M107 225L108 226L107 225z"/>
<path style="fill:#6d613c; stroke:none;" d="M147 225L148 226L147 225z"/>
<path style="fill:#877746; stroke:none;" d="M216 225L217 226L216 225z"/>
<path style="fill:#a08b4e; stroke:none;" d="M423 225L424 226L423 225z"/>
<path style="fill:#7e6f42; stroke:none;" d="M302.333 226.667L302.333 227.333L302.667 227.333L302.667 226.667L302.333 226.667z"/>
<path style="fill:#7e6e42; stroke:none;" d="M472 226L472 231L472.57 229.933L472.608 229.542L472.746 228.183L472.608 227.458L472.57 227.067L472 226z"/>
<path style="fill:#6c603c; stroke:none;" d="M106 227L107 228L106 227z"/>
<path style="fill:#74673f; stroke:none;" d="M146 227L147 228L146 227z"/>
<path style="fill:#ab9452; stroke:none;" d="M157.333 227.667L157.333 228.333L157.667 228.333L157.667 227.667L157.333 227.667z"/>
<path style="fill:#605638; stroke:none;" d="M422 227L423 228L422 227z"/>
<path style="fill:#9a864c; stroke:none;" d="M217 228L218 229L217 228z"/>
<path style="fill:#453f2e; stroke:none;" d="M302.333 228.667L302.333 229.333L302.667 229.333L302.667 229L302.333 228.667z"/>
<path style="fill:#a69050; stroke:none;" d="M422 228L423 229L422 228z"/>
<path style="fill:#7a6c41; stroke:none;" d="M105 229L106 230L105 229z"/>
<path style="fill:#807043; stroke:none;" d="M145 229L146 230L145 229z"/>
<path style="fill:#675c3a; stroke:none;" d="M421 230L422 231L421 230z"/>
<path style="fill:#8a7946; stroke:none;" d="M104 231L105 232L104 231z"/>
<path style="fill:#8b7a47; stroke:none;" d="M144 231L145 232L144 231z"/>
<path style="fill:#a08b4e; stroke:none;" d="M158.333 231.667L158.333 232.333L158.667 232.333L158.667 232L158.333 231.667z"/>
<path style="fill:#ac9552; stroke:none;" d="M218 231L219 232L218 231z"/>
<path style="fill:#ab9452; stroke:none;" d="M421 231L422 232L421 231z"/>
<path style="fill:#b59c55; stroke:none;" d="M472 231L472 239L472.585 237.914L472.641 237.484L472.836 236.684L472.932 235L472.836 233.316L472.641 232.516L472.585 232.086L472 231z"/>
<path style="fill:#6e613c; stroke:none;" d="M218 232L219 233L218 232z"/>
<path style="fill:#a18c4f; stroke:none;" d="M301 232L301 235L301.579 234.125L301.579 233.199L301.579 232.875L301 232z"/>
<path style="fill:#95824a; stroke:none;" d="M103 233L104 234L103 233z"/>
<path style="fill:#97834b; stroke:none;" d="M143 233L144 234L143 233z"/>
<path style="fill:#6b5f3c; stroke:none;" d="M420 233L421 234L420 233z"/>
<path style="fill:#b09854; stroke:none;" d="M420 234L421 235L420 234z"/>
<path style="fill:#a08b4e; stroke:none;" d="M102 235L103 236L102 235z"/>
<path style="fill:#a18c4f; stroke:none;" d="M142 235L143 236L142 235z"/>
<path style="fill:#99854c; stroke:none;" d="M159.333 235.667L159.333 236.333L159.667 236.333L159.667 236L159.333 235.667z"/>
<path style="fill:#796b41; stroke:none;" d="M219 235L220 236L219 235z"/>
<path style="fill:#4d4631; stroke:none;" d="M301.333 235.667L301.333 236.333L301.667 236.333L301.667 236L301.333 235.667z"/>
<path style="fill:#6e623c; stroke:none;" d="M419 236L420 237L419 236z"/>
<path style="fill:#a79151; stroke:none;" d="M101 237L102 238L101 237z"/>
<path style="fill:#b09954; stroke:none;" d="M141 237L142 238L141 237z"/>
<path style="fill:#b39b55; stroke:none;" d="M419 237L420 238L419 237z"/>
<path style="fill:#7f7043; stroke:none;" d="M220 238L221 239L220 238z"/>
<path style="fill:#ae9653; stroke:none;" d="M100 239L101 240L100 239z"/>
<path style="fill:#96834a; stroke:none;" d="M160.333 239.667L160.333 240.333L160.667 240.333L160.667 240L160.333 239.667z"/>
<path style="fill:#aa9352; stroke:none;" d="M300 239L300 242L300.579 241.125L300.579 240.801L300.579 239.875L300 239z"/>
<path style="fill:#70633d; stroke:none;" d="M418 239L419 240L418 239z"/>
<path style="fill:#635839; stroke:none;" d="M139 240L140 241L139 240z"/>
<path style="fill:#b49c55; stroke:none;" d="M418 240L419 241L418 240z"/>
<path style="fill:#d5b761; stroke:none;" d="M431 240L431 245L431.57 243.933L431.608 243.542L431.746 242.183L431.608 241.458L431.57 241.067L431 240z"/>
<path style="fill:#b59d56; stroke:none;" d="M99 241L100 242L99 241z"/>
<path style="fill:#867545; stroke:none;" d="M221 241L222 242L221 241z"/>
<path style="fill:#72653e; stroke:none;" d="M138 242L139 243L138 242z"/>
<path style="fill:#564d34; stroke:none;" d="M300.333 242.667L300.333 243.333L300.667 243.333L300.667 243L300.333 242.667z"/>
<path style="fill:#71643e; stroke:none;" d="M417 242L418 243L417 242z"/>
<path style="fill:#b9a057; stroke:none;" d="M98 243L99 244L98 243z"/>
<path style="fill:#94814a; stroke:none;" d="M161.333 243.667L161.333 244.333L161.667 244.333L161.667 244L161.333 243.667z"/>
<path style="fill:#b49c55; stroke:none;" d="M417 243L418 244L417 243z"/>
<path style="fill:#827243; stroke:none;" d="M137 244L138 245L137 244z"/>
<path style="fill:#8e7c48; stroke:none;" d="M222 244L223 245L222 244z"/>
<path style="fill:#3e392c; stroke:none;" d="M471 244L471 251L471.584 249.914L471.639 249.488L471.826 248.698L471.873 247.079L471.826 246.302L471.639 245.512L471.584 245.086L471 244z"/>
<path style="fill:#71643e; stroke:none;" d="M416 245L417 246L416 245z"/>
<path style="fill:#b59d56; stroke:none;" d="M431 245L431 253L431.585 251.914L431.641 251.484L431.836 250.684L431.932 249L431.836 247.316L431.641 246.516L431.585 246.086L431 245z"/>
<path style="fill:#96834b; stroke:none;" d="M136 246L137 247L136 246z"/>
<path style="fill:#b29a55; stroke:none;" d="M299 246L299 249L299.579 248.125L299.579 247.801L299.579 246.875L299 246z"/>
<path style="fill:#b59d55; stroke:none;" d="M416 246L417 247L416 246z"/>
<path style="fill:#97844b; stroke:none;" d="M162.333 247.667L162.333 248.333L162.667 248.333L162.667 248L162.333 247.667z"/>
<path style="fill:#907e48; stroke:none;" d="M223 247L224 248L223 247z"/>
<path style="fill:#93804a; stroke:none;" d="M337 247L337.111 248.389L337.667 249.333L337.861 249.639L339 250L338.194 248.347L338.011 247.909L337 247z"/>
<path style="fill:#5a5135; stroke:none;" d="M96 248L97 249L96 248z"/>
<path style="fill:#a99251; stroke:none;" d="M135 248L136 249L135 248z"/>
<path style="fill:#70633d; stroke:none;" d="M415 248L416 249L415 248z"/>
<path style="fill:#5e5337; stroke:none;" d="M299.333 249.667L299.333 250L299.667 250.333L299.667 249.667L299.333 249.667z"/>
<path style="fill:#b49b55; stroke:none;" d="M415 249L416 250L415 249z"/>
<path style="fill:#5a5135; stroke:none;" d="M95 250L96 251L95 250z"/>
<path style="fill:#877645; stroke:none;" d="M224 250L225 251L224 250z"/>
<path style="fill:#c6ab5c; stroke:none;" d="M337 250L337 252L339 251L339 250L337 250z"/>
<path style="fill:#5e5437; stroke:none;" d="M133 251L134 252L133 251z"/>
<path style="fill:#9c884d; stroke:none;" d="M163.333 251.667L163.333 252L163.667 252.333L163.667 251.667L163.333 251.667z"/>
<path style="fill:#6e623d; stroke:none;" d="M414 251L415 252L414 251z"/>
<path style="fill:#655939; stroke:none;" d="M471 251L471 269L471.585 267.914L471.642 267.483L471.84 266.679C471.944 265.783 471.958 264.882 471.986 263.981L472 260L471.986 256.018C471.958 255.118 471.944 254.217 471.84 253.321L471.642 252.517L471.585 252.086L471 251z"/>
<path style="fill:#585035; stroke:none;" d="M94 252L95 253L94 252z"/>
<path style="fill:#807143; stroke:none;" d="M339 252L340 253L339 252z"/>
<path style="fill:#b29a55; stroke:none;" d="M414 252L415 253L414 252z"/>
<path style="fill:#73663e; stroke:none;" d="M132 253L133 254L132 253z"/>
<path style="fill:#817143; stroke:none;" d="M225 253L226 254L225 253z"/>
<path style="fill:#8b7a47; stroke:none;" d="M431 253L431 262L431.585 260.914L431.642 260.483L431.839 259.68L431.952 257.96L431.952 257.04L431.839 255.32L431.642 254.517L431.585 254.086L431 253z"/>
<path style="fill:#584f35; stroke:none;" d="M93 254L94 255L93 254z"/>
<path style="fill:#9e894e; stroke:none;" d="M298.333 254.667L298.333 255L298.667 255.333L298.667 255L298.333 254.667z"/>
<path style="fill:#5e5437; stroke:none;" d="M336.333 254.667L336.333 255L336.667 255.333L336.667 254.667L336.333 254.667z"/>
<path style="fill:#6d613c; stroke:none;" d="M413 254L414 255L413 254z"/>
<path style="fill:#8a7946; stroke:none;" d="M131 255L132 256L131 255z"/>
<path style="fill:#a69151; stroke:none;" d="M164.333 255.667L164.333 256L164.667 256.333L164.667 255.667L164.333 255.667z"/>
<path style="fill:#6e613c; stroke:none;" d="M340 255L341 256L340 255z"/>
<path style="fill:#b09954; stroke:none;" d="M413 255L414 256L413 255z"/>
<path style="fill:#7b6c41; stroke:none;" d="M226 256L227 257L226 256z"/>
<path style="fill:#665b3a; stroke:none;" d="M298.333 256.667L298.333 257.333L298.667 257.333L298.667 256.667L298.333 256.667z"/>
<path style="fill:#8f7d48; stroke:none;" d="M336 256L336 259L336.579 258.125L336.579 257.801L336.579 256.875L336 256z"/>
<path style="fill:#aa9452; stroke:none;" d="M340 256L341 257L340 256z"/>
<path style="fill:#a08b4e; stroke:none;" d="M130 257L131 258L130 257z"/>
<path style="fill:#6b5f3c; stroke:none;" d="M412 257L413 258L412 257z"/>
<path style="fill:#5e5437; stroke:none;" d="M341 258L342 259L341 258z"/>
<path style="fill:#ac9552; stroke:none;" d="M412 258L413 259L412 258z"/>
<path style="fill:#b79e56; stroke:none;" d="M90 259L91 260L90 259z"/>
<path style="fill:#b59d56; stroke:none;" d="M129 259L130 260L129 259z"/>
<path style="fill:#b09954; stroke:none;" d="M165.333 259.667L165.333 260L165.667 260.333L165.667 260L165.333 259.667z"/>
<path style="fill:#71643d; stroke:none;" d="M227 259L228 260L227 259z"/>
<path style="fill:#a58f50; stroke:none;" d="M341 259L342 260L341 259z"/>
<path style="fill:#5a5136; stroke:none;" d="M128 260L129 261L128 260z"/>
<path style="fill:#655a39; stroke:none;" d="M411 260L412 261L411 260z"/>
<path style="fill:#b39b55; stroke:none;" d="M89 261L90 262L89 261z"/>
<path style="fill:#a99251; stroke:none;" d="M228 261L229 262L228 261z"/>
<path style="fill:#a69050; stroke:none;" d="M297 261L297 264L297.579 263.125L297.579 262.801L297.579 261.875L297 261z"/>
<path style="fill:#685c3a; stroke:none;" d="M342 261L343 262L342 261z"/>
<path style="fill:#a69050; stroke:none;" d="M411 261L412 262L411 261z"/>
<path style="fill:#71633d; stroke:none;" d="M127 262L128 263L127 262z"/>
<path style="fill:#5e5437; stroke:none;" d="M228 262L229 263L228 262z"/>
<path style="fill:#584f35; stroke:none;" d="M335.333 262.667L335.333 263L335.667 263.333L335.667 262.667L335.333 262.667z"/>
<path style="fill:#af9753; stroke:none;" d="M342 262L343 263L342 262z"/>
<path style="fill:#605537; stroke:none;" d="M431 262L431 268L431.582 266.918L431.628 266.502L431.806 265.738L431.806 264.262L431.628 263.498L431.582 263.082L431 262z"/>
<path style="fill:#af9753; stroke:none;" d="M88 263L89 264L88 263z"/>
<path style="fill:#877745; stroke:none;" d="M166 263L167 264L166 263z"/>
<path style="fill:#615638; stroke:none;" d="M410 263L411 264L410 263z"/>
<path style="fill:#8b7a47; stroke:none;" d="M126 264L127 265L126 264z"/>
<path style="fill:#96824a; stroke:none;" d="M229 264L230 265L229 264z"/>
<path style="fill:#524a33; stroke:none;" d="M297.333 264.667L297.333 265.333L297.667 265.333L297.667 264.667L297.333 264.667z"/>
<path style="fill:#8a7946; stroke:none;" d="M335 264L335 267L335.579 266.125L335.579 265.199L335.579 264.875L335 264z"/>
<path style="fill:#71643e; stroke:none;" d="M343 264L344 265L343 264z"/>
<path style="fill:#a38e4f; stroke:none;" d="M410 264L411 265L410 264z"/>
<path style="fill:#aa9452; stroke:none;" d="M87 265L88 266L87 265z"/>
<path style="fill:#a48e50; stroke:none;" d="M125 266L126 267L125 266z"/>
<path style="fill:#605638; stroke:none;" d="M167 266L168 267L167 266z"/>
<path style="fill:#5d5337; stroke:none;" d="M409 266L410 267L409 266z"/>
<path style="fill:#a48e50; stroke:none;" d="M86 267L87 268L86 267z"/>
<path style="fill:#97834b; stroke:none;" d="M167 267L168 268L167 267z"/>
<path style="fill:#837344; stroke:none;" d="M230 267L231 268L230 267z"/>
<path style="fill:#7a6b41; stroke:none;" d="M344 267L345 268L344 267z"/>
<path style="fill:#a08c4e; stroke:none;" d="M409 267L410 268L409 267z"/>
<path style="fill:#ae9753; stroke:none;" d="M296 268L296 271L296.579 270.125L296.579 269.801L296.579 268.875L296 268z"/>
<path style="fill:#494230; stroke:none;" d="M431 268L431 275L431.584 273.914L431.639 273.488L431.826 272.698L431.873 271.079L431.826 270.302L431.639 269.512L431.584 269.086L431 268z"/>
<path style="fill:#9d884d; stroke:none;" d="M85 269L86 270L85 269z"/>
<path style="fill:#645939; stroke:none;" d="M123 269L124 270L123 269z"/>
<path style="fill:#605538; stroke:none;" d="M408 269L409 270L408 269z"/>
<path style="fill:#7c6d42; stroke:none;" d="M471 269L471 275L471.582 273.918L471.628 273.502L471.806 272.738L471.806 271.262L471.628 270.498L471.582 270.082L471 269z"/>
<path style="fill:#8f7d48; stroke:none;" d="M137.667 270.333L138 270.667L138.333 270.667L138 270.333L137.667 270.333z"/>
<path style="fill:#584f35; stroke:none;" d="M139 270L139.909 270.585L140.347 270.653L142 271L141.091 270.415L140.653 270.347L139 270z"/>
<path style="fill:#8c7a47; stroke:none;" d="M148 270L148.909 270.585L149.347 270.653L151 271L150.091 270.415L149.653 270.347L148 270z"/>
<path style="fill:#71633e; stroke:none;" d="M168 270L169 271L168 270z"/>
<path style="fill:#6d613c; stroke:none;" d="M231 270L232 271L231 270z"/>
<path style="fill:#98854b; stroke:none;" d="M345 270L346 271L345 270z"/>
<path style="fill:#a58f50; stroke:none;" d="M408 270L409 271L408 270z"/>
<path style="fill:#96824a; stroke:none;" d="M84 271L85 272L84 271z"/>
<path style="fill:#7e6f42; stroke:none;" d="M122 271L123 272L122 271z"/>
<path style="fill:#504832; stroke:none;" d="M134.667 271.333L135 271.667L135.333 271.667L135 271.333L134.667 271.333z"/>
<path style="fill:#786940; stroke:none;" d="M153 271L154 272L153 271z"/>
<path style="fill:#b09954; stroke:none;" d="M154 271L155 272L154 271z"/>
<path style="fill:#a99251; stroke:none;" d="M168 271L169 272L168 271z"/>
<path style="fill:#5a5136; stroke:none;" d="M296.333 271.667L296.333 272.333L296.667 272.333L296.667 271.667L296.333 271.667z"/>
<path style="fill:#6c603c; stroke:none;" d="M334 271L334 274L334.579 273.125L334.579 272.801L334.579 271.875L334 271z"/>
<path style="fill:#b39b55; stroke:none;" d="M131 272L132 273L131 272z"/>
<path style="fill:#5a5136; stroke:none;" d="M132 272L133 273L132 272z"/>
<path style="fill:#776940; stroke:none;" d="M156 272L157 273L156 272z"/>
<path style="fill:#9d884d; stroke:none;" d="M232 272L233 273L232 272z"/>
<path style="fill:#70623d; stroke:none;" d="M346 272L347 273L346 272z"/>
<path style="fill:#675c3a; stroke:none;" d="M407 272L408 273L407 272z"/>
<path style="fill:#917e49; stroke:none;" d="M83 273L84 274L83 273z"/>
<path style="fill:#9b864c; stroke:none;" d="M121 273L122 274L121 273z"/>
<path style="fill:#97844b; stroke:none;" d="M159 273L160 274L159 273z"/>
<path style="fill:#b39b55; stroke:none;" d="M407 273L408 274L407 273z"/>
<path style="fill:#665b3a; stroke:none;" d="M128 274L129 275L128 274z"/>
<path style="fill:#786940; stroke:none;" d="M161 274L162 275L161 274z"/>
<path style="fill:#847444; stroke:none;" d="M169 274L170 275L169 274z"/>
<path style="fill:#baa158; stroke:none;" d="M334.333 274.667L334.333 275.333L334.667 275.333L334.667 274.667L334.333 274.667z"/>
<path style="fill:#877645; stroke:none;" d="M82 275L83 276L82 275z"/>
<path style="fill:#b79e56; stroke:none;" d="M120 275L121 276L120 275z"/>
<path style="fill:#897846; stroke:none;" d="M126 275L127 276L126 275z"/>
<path style="fill:#635839; stroke:none;" d="M163 275L164 276L163 275z"/>
<path style="fill:#7d6d42; stroke:none;" d="M233 275L234 276L233 275z"/>
<path style="fill:#98854b; stroke:none;" d="M347 275L348 276L347 275z"/>
<path style="fill:#7e6e42; stroke:none;" d="M406 275L407 276L406 275z"/>
<path style="fill:#ad9653; stroke:none;" d="M471 275L471 296L471.585 294.914L471.642 294.483L471.84 293.679C471.982 292.457 471.982 291.224 471.997 289.995L472 285L471.986 280.019C471.964 279.119 471.944 278.216 471.84 277.321L471.642 276.517L471.585 276.086L471 275z"/>
<path style="fill:#5e5437; stroke:none;" d="M119 276L120 277L119 276z"/>
<path style="fill:#584f35; stroke:none;" d="M125 276L126 277L125 276z"/>
<path style="fill:#5d5336; stroke:none;" d="M165 276L166 277L165 276z"/>
<path style="fill:#9a864c; stroke:none;" d="M295 276L295 279L295.579 278.125L295.579 277.199L295.579 276.875L295 276z"/>
<path style="fill:#7f6f42; stroke:none;" d="M81 277L82 278L81 277z"/>
<path style="fill:#5e5337; stroke:none;" d="M167 277L168 278L167 277z"/>
<path style="fill:#7d6e42; stroke:none;" d="M170 277L169 279L171 279L171 277L170 277z"/>
<path style="fill:#ac9553; stroke:none;" d="M234 277L235 278L234 277z"/>
<path style="fill:#70623d; stroke:none;" d="M348 277L349 278L348 277z"/>
<path style="fill:#796b41; stroke:none;" d="M118 278L119 279L118 278z"/>
<path style="fill:#a08b4e; stroke:none;" d="M122 278L123 279L122 278z"/>
<path style="fill:#5d5337; stroke:none;" d="M234 278L235 279L234 278z"/>
<path style="fill:#595035; stroke:none;" d="M333.333 278.667L333.333 279.333L333.667 279.333L333.667 278.667L333.333 278.667z"/>
<path style="fill:#9e8a4e; stroke:none;" d="M405 278L406 279L405 278z"/>
<path style="fill:#776940; stroke:none;" d="M80 279L81 280L80 279z"/>
<path style="fill:#97844b; stroke:none;" d="M121 279L122 280L121 279z"/>
<path style="fill:#46402f; stroke:none;" d="M295.333 279.667L295.333 280.333L295.667 280.333L295.667 279.667L295.333 279.667z"/>
<path style="fill:#98844b; stroke:none;" d="M117 280L118 281L117 280z"/>
<path style="fill:#907e48; stroke:none;" d="M120 280L121 281L120 280z"/>
<path style="fill:#8c7a47; stroke:none;" d="M235 280L236 281L235 280z"/>
<path style="fill:#907d48; stroke:none;" d="M333 280L333 283L333.579 282.125L333.579 281.801L333.579 280.875L333 280z"/>
<path style="fill:#aa9351; stroke:none;" d="M349 280L350 281L349 280z"/>
<path style="fill:#7b6c41; stroke:none;" d="M404 280L405 281L404 280z"/>
<path style="fill:#6e623d; stroke:none;" d="M79 281L80 282L79 281z"/>
<path style="fill:#867545; stroke:none;" d="M119 281L120 282L119 281z"/>
<path style="fill:#9b874c; stroke:none;" d="M116 282L117 283L116 282z"/>
<path style="fill:#847344; stroke:none;" d="M118 282L119 283L118 282z"/>
<path style="fill:#b69e56; stroke:none;" d="M236 282L237 283L236 282z"/>
<path style="fill:#9a864c; stroke:none;" d="M350 282L351 283L350 282z"/>
<path style="fill:#5c5236; stroke:none;" d="M403 282L404 283L403 282z"/>
<path style="fill:#665b3a; stroke:none;" d="M78 283L79 284L78 283z"/>
<path style="fill:#bea459; stroke:none;" d="M115 286L116.653 284.653L117.091 284.326L118 283L116.611 283.361L116.278 283.667L115.361 284.611L115 286z"/>
<path style="fill:#645939; stroke:none;" d="M236 283L237 284L236 283z"/>
<path style="fill:#a38e50; stroke:none;" d="M294.333 283.667L294.333 284.333L294.667 284.333L294.667 283.667L294.333 283.667z"/>
<path style="fill:#8a7947; stroke:none;" d="M351 284L352 285L351 284z"/>
<path style="fill:#5d5337; stroke:none;" d="M77 285L78 286L77 285z"/>
<path style="fill:#8b7947; stroke:none;" d="M237 285L238 286L237 285z"/>
<path style="fill:#6b5e3b; stroke:none;" d="M294 285L294 288L294.579 287.125L294.579 286.801L294.579 285.875L294 285z"/>
<path style="fill:#af9853; stroke:none;" d="M402 285L403 286L402 285z"/>
<path style="fill:#a58f50; stroke:none;" d="M114 286L115 287L114 286z"/>
<path style="fill:#695e3b; stroke:none;" d="M332 286L332 289L332.579 288.125L332.579 287.801L332.579 286.875L332 286z"/>
<path style="fill:#7a6b41; stroke:none;" d="M352 286L353 287L352 286z"/>
<path style="fill:#655939; stroke:none;" d="M113 287L113 289L114 289L115 287L113 287z"/>
<path style="fill:#af9853; stroke:none;" d="M238 287L239 288L238 287z"/>
<path style="fill:#b9a057; stroke:none;" d="M401 287L402 288L401 287z"/>
<path style="fill:#bca258; stroke:none;" d="M430 287L430 299L430.585 297.914L430.642 297.483L430.84 296.679C430.981 295.46 430.994 294.225 430.994 293C430.994 291.775 430.981 290.54 430.84 289.321L430.642 288.517L430.585 288.086L430 287z"/>
<path style="fill:#b39b55; stroke:none;" d="M75 288L76 289L75 288z"/>
<path style="fill:#5c5236; stroke:none;" d="M238 288L239 289L238 288z"/>
<path style="fill:#6f623d; stroke:none;" d="M353 288L354 289L353 288z"/>
<path style="fill:#625738; stroke:none;" d="M400 288L401 289L400 288z"/>
<path style="fill:#bda358; stroke:none;" d="M332.333 289.667L332.333 290L332.667 290.333L332.667 289.667L332.333 289.667z"/>
<path style="fill:#a99352; stroke:none;" d="M74 290L75 291L74 290z"/>
<path style="fill:#817143; stroke:none;" d="M239 290L240 291L239 290z"/>
<path style="fill:#a69050; stroke:none;" d="M293 290L293 293L293.579 292.125L293.579 291.801L293.579 290.875L293 290z"/>
<path style="fill:#7f6f42; stroke:none;" d="M354 290L355 291L354 290z"/>
<path style="fill:#847444; stroke:none;" d="M399 290L400 291L399 290z"/>
<path style="fill:#9d894d; stroke:none;" d="M73 292L74 293L73 292z"/>
<path style="fill:#a79150; stroke:none;" d="M240 292L241 293L240 292z"/>
<path style="fill:#927f49; stroke:none;" d="M355 292L356 293L355 292z"/>
<path style="fill:#4d4631; stroke:none;" d="M293.333 293.667L293.333 294L293.667 294.333L293.667 293.667L293.333 293.667z"/>
<path style="fill:#625738; stroke:none;" d="M331.333 293.667L331.333 294.333L331.667 294.333L331.667 293.667L331.333 293.667z"/>
<path style="fill:#ae9753; stroke:none;" d="M397 293L398 294L397 293z"/>
<path style="fill:#94814a; stroke:none;" d="M72 294L73 295L72 294z"/>
<path style="fill:#8a7947; stroke:none;" d="M396 294L397 295L396 294z"/>
<path style="fill:#6e623d; stroke:none;" d="M241 295L242 296L241 295z"/>
<path style="fill:#9b874c; stroke:none;" d="M331.333 295.667L331.333 296L331.667 296.333L331.667 295.667L331.333 295.667z"/>
<path style="fill:#8b7a47; stroke:none;" d="M357 295L358 296L357 295z"/>
<path style="fill:#776940; stroke:none;" d="M395 295L396 296L395 295z"/>
<path style="fill:#877645; stroke:none;" d="M71 296L72 297L71 296z"/>
<path style="fill:#685c3b; stroke:none;" d="M394 296L395 297L394 296z"/>
<path style="fill:#95824a; stroke:none;" d="M471 296L471 303L471.584 301.914L471.639 301.488L471.826 300.698L471.873 299.921L471.826 298.302L471.639 297.512L471.584 297.086L471 296z"/>
<path style="fill:#45402e; stroke:none;" d="M108 297L107 299L109 299L109 297L108 297z"/>
<path style="fill:#8a7947; stroke:none;" d="M242 297L243 298L242 297z"/>
<path style="fill:#a58f50; stroke:none;" d="M292.333 297.667L292.333 298.333L292.667 298.333L292.667 297.667L292.333 297.667z"/>
<path style="fill:#615638; stroke:none;" d="M393 297L394 298L393 297z"/>
<path style="fill:#7c6d42; stroke:none;" d="M70 298L71 299L70 298z"/>
<path style="fill:#766840; stroke:none;" d="M392 298L393 299L392 298z"/>
<path style="fill:#94814a; stroke:none;" d="M107 299L106 301L108 301L108 299L107 299z"/>
<path style="fill:#a69050; stroke:none;" d="M243 299L244 300L243 299z"/>
<path style="fill:#6a5e3b; stroke:none;" d="M292 299L292 302L292.579 301.125L292.579 300.199L292.579 299.875L292 299z"/>
<path style="fill:#b29a55; stroke:none;" d="M360 299L361 300L360 299z"/>
<path style="fill:#907e48; stroke:none;" d="M391 299L392 300L391 299z"/>
<path style="fill:#a58f50; stroke:none;" d="M430 299L430 319L430.585 317.914L430.642 317.483L430.84 316.679C430.944 315.784 430.964 314.881 430.986 313.981L431 309L430.986 304.019C430.964 303.119 430.944 302.216 430.84 301.321L430.642 300.517L430.585 300.086L430 299z"/>
<path style="fill:#71643d; stroke:none;" d="M69 300L70 301L69 300z"/>
<path style="fill:#605638; stroke:none;" d="M330.333 300.667L330.333 301.333L330.667 301.333L330.667 300.667L330.333 300.667z"/>
<path style="fill:#b89f57; stroke:none;" d="M361 300L362 301L361 300z"/>
<path style="fill:#aa9452; stroke:none;" d="M390 300L391 301L390 300z"/>
<path style="fill:#665b3a; stroke:none;" d="M68 302L69 303L68 302z"/>
<path style="fill:#837344; stroke:none;" d="M105 302L106 303L105 302z"/>
<path style="fill:#6b5f3b; stroke:none;" d="M244 302L245 303L244 302z"/>
<path style="fill:#9b874c; stroke:none;" d="M330 302L330 305L330.579 304.125L330.579 303.801L330.579 302.875L330 302z"/>
<path style="fill:#75673f; stroke:none;" d="M387 302L388 303L387 302z"/>
<path style="fill:#917f49; stroke:none;" d="M365 303L366 304L365 303z"/>
<path style="fill:#7d6d42; stroke:none;" d="M471 303L471 308L471.57 306.933L471.608 306.542L471.746 305.183L471.608 304.458L471.57 304.067L471 303z"/>
<path style="fill:#5a5136; stroke:none;" d="M67 304L68 305L67 304z"/>
<path style="fill:#8e7c48; stroke:none;" d="M104 304L105 305L104 304z"/>
<path style="fill:#847445; stroke:none;" d="M245 304L246 305L245 304z"/>
<path style="fill:#a18c4e; stroke:none;" d="M291.333 304.667L291.333 305.333L291.667 305.333L291.667 304.667L291.333 304.667z"/>
<path style="fill:#786a40; stroke:none;" d="M367 304L368 305L367 304z"/>
<path style="fill:#ab9452; stroke:none;" d="M384 304L385 305L384 304z"/>
<path style="fill:#8a7947; stroke:none;" d="M369 305L370 306L369 305z"/>
<path style="fill:#786a40; stroke:none;" d="M381 305L382 306L381 305z"/>
<path style="fill:#96834b; stroke:none;" d="M103 306L104 307L103 306z"/>
<path style="fill:#98844b; stroke:none;" d="M246 306L247 307L246 306z"/>
<path style="fill:#615738; stroke:none;" d="M291.333 306.667L291.333 307.333L291.667 307.333L291.667 306.667L291.333 306.667z"/>
<path style="fill:#807143; stroke:none;" d="M372 306L373.082 306.585L373.492 306.642L374.276 306.84C374.962 306.926 375.657 306.963 376.348 306.985L378 307L376.918 306.415L376.508 306.358L375.724 306.16C375.038 306.074 374.342 306.037 373.652 306.015L372 306z"/>
<path style="fill:#b09954; stroke:none;" d="M65 307L66 308L65 307z"/>
<path style="fill:#9a864c; stroke:none;" d="M107.333 307.667L107.333 308.333L107.667 308.333L107.667 308L107.333 307.667z"/>
<path style="fill:#655a3a; stroke:none;" d="M329 307L329 310L329.579 309.125L329.579 308.801L329.579 307.875L329 307z"/>
<path style="fill:#9c884d; stroke:none;" d="M102 308L103 309L102 308z"/>
<path style="fill:#aa9452; stroke:none;" d="M247 308L248 309L247 308z"/>
<path style="fill:#645939; stroke:none;" d="M471 308L471 313L471.57 311.933L471.608 311.542L471.746 310.183L471.608 309.458L471.57 309.067L471 308z"/>
<path style="fill:#a79050; stroke:none;" d="M64 309L65 310L64 309z"/>
<path style="fill:#a18c4f; stroke:none;" d="M101 310L102 311L101 310z"/>
<path style="fill:#ae9753; stroke:none;" d="M290 310L290 313L290.579 312.125L290.579 311.199L290.579 310.875L290 310z"/>
<path style="fill:#c2a75a; stroke:none;" d="M329.333 310.667L329.333 311.333L329.667 311.333L329.667 310.667L329.333 310.667z"/>
<path style="fill:#9d894d; stroke:none;" d="M63 311L64 312L63 311z"/>
<path style="fill:#98854c; stroke:none;" d="M108 311L109 312L108 311z"/>
<path style="fill:#625738; stroke:none;" d="M248 311L249 312L248 311z"/>
<path style="fill:#a48e4f; stroke:none;" d="M100 312L101 313L100 312z"/>
<path style="fill:#94814a; stroke:none;" d="M62 313L63 314L62 313z"/>
<path style="fill:#98844b; stroke:none;" d="M109 313L110 314L109 313z"/>
<path style="fill:#75673f; stroke:none;" d="M249 313L250 314L249 313z"/>
<path style="fill:#4e4731; stroke:none;" d="M290.333 313.667L290.333 314.333L290.667 314.333L290.667 313.667L290.333 313.667z"/>
<path style="fill:#413c2d; stroke:none;" d="M471 313L471 319L471.582 317.918L471.628 317.502L471.806 316.738L471.806 315.262L471.628 314.498L471.582 314.082L471 313z"/>
<path style="fill:#a69050; stroke:none;" d="M99 314L100 315L99 314z"/>
<path style="fill:#73653e; stroke:none;" d="M328.333 314.667L328.333 315.333L328.667 315.333L328.667 314.667L328.333 314.667z"/>
<path style="fill:#8a7947; stroke:none;" d="M61 315L62 316L61 315z"/>
<path style="fill:#827244; stroke:none;" d="M250 315L251 316L250 315z"/>
<path style="fill:#a69050; stroke:none;" d="M98 316L99 317L98 316z"/>
<path style="fill:#a28d4f; stroke:none;" d="M111 316L112 317L111 316z"/>
<path style="fill:#b29a55; stroke:none;" d="M328.333 316.667L328.333 317.333L328.667 317.333L328.667 317L328.333 316.667z"/>
<path style="fill:#807143; stroke:none;" d="M60 317L61 318L60 317z"/>
<path style="fill:#827243; stroke:none;" d="M112 317L113 318L112 317z"/>
<path style="fill:#807143; stroke:none;" d="M251 317L252 318L251 317z"/>
<path style="fill:#9a864c; stroke:none;" d="M289 317L289 320L289.579 319.125L289.579 318.801L289.579 317.875L289 317z"/>
<path style="fill:#a69050; stroke:none;" d="M97 318L98 319L97 318z"/>
<path style="fill:#695d3b; stroke:none;" d="M113 318L114 319L113 318z"/>
<path style="fill:#776940; stroke:none;" d="M59 319L60 320L59 319z"/>
<path style="fill:#73653e; stroke:none;" d="M114 319L115 320L114 319z"/>
<path style="fill:#807043; stroke:none;" d="M252 319L253 320L252 319z"/>
<path style="fill:#796a41; stroke:none;" d="M430 319L430 327L430.585 325.914L430.641 325.484L430.836 324.684L430.932 323L430.836 321.316L430.641 320.516L430.585 320.086L430 319z"/>
<path style="fill:#a69050; stroke:none;" d="M96 320L97 321L96 320z"/>
<path style="fill:#847445; stroke:none;" d="M115 320L116 321L115 320z"/>
<path style="fill:#685c3b; stroke:none;" d="M327.333 320.667L327.333 321.333L327.667 321.333L327.667 320.667L327.333 320.667z"/>
<path style="fill:#635839; stroke:none;" d="M58 321L59 322L58 321z"/>
<path style="fill:#ab9552; stroke:none;" d="M116 321L117 322L116 321z"/>
<path style="fill:#7f7043; stroke:none;" d="M253 321L254 322L253 321z"/>
<path style="fill:#b89f57; stroke:none;" d="M57 322L58 323L57 322z"/>
<path style="fill:#a48e50; stroke:none;" d="M95 322L96 323L95 322z"/>
<path style="fill:#aa9452; stroke:none;" d="M327.333 322.667L327.333 323.333L327.667 323.333L327.667 322.667L327.333 322.667z"/>
<path style="fill:#7c6d41; stroke:none;" d="M119 323L120 324L119 323z"/>
<path style="fill:#766840; stroke:none;" d="M254 323L255 324L254 323z"/>
<path style="fill:#99854c; stroke:none;" d="M288 323L288 326L288.579 325.125L288.579 324.801L288.579 323.875L288 323z"/>
<path style="fill:#938049; stroke:none;" d="M56 324L57 325L56 324z"/>
<path style="fill:#a08b4e; stroke:none;" d="M94 324L95 325L94 324z"/>
<path style="fill:#776940; stroke:none;" d="M122 325L123 326L122 325z"/>
<path style="fill:#5a5136; stroke:none;" d="M255 325L256 326L255 325z"/>
<path style="fill:#786a40; stroke:none;" d="M55 326L56 327L55 326z"/>
<path style="fill:#9e894d; stroke:none;" d="M93 326L94 327L93 326z"/>
<path style="fill:#b19954; stroke:none;" d="M256 326L257 327L256 326z"/>
<path style="fill:#8a7946; stroke:none;" d="M125 327L126 328L125 327z"/>
<path style="fill:#897846; stroke:none;" d="M326 327L326 330L326.579 329.125L326.579 328.801L326.579 327.875L326 327z"/>
<path style="fill:#5b5136; stroke:none;" d="M430 327L430 334L430.584 332.914L430.639 332.488L430.826 331.698L430.873 330.079L430.826 329.302L430.639 328.512L430.584 328.086L430 327z"/>
<path style="fill:#675c3a; stroke:none;" d="M54 328L55 329L54 328z"/>
<path style="fill:#98844b; stroke:none;" d="M92 328L93 329L92 328z"/>
<path style="fill:#5a5136; stroke:none;" d="M127 328L128 329L127 328z"/>
<path style="fill:#9e8a4e; stroke:none;" d="M257 328L258 329L257 328z"/>
<path style="fill:#ad9653; stroke:none;" d="M128 329L129 330L128 329z"/>
<path style="fill:#94814a; stroke:none;" d="M287 329L287 332L287.579 331.125L287.579 330.801L287.579 329.875L287 329z"/>
<path style="fill:#605538; stroke:none;" d="M471 329L471 341L471.585 339.914L471.642 339.483L471.84 338.679C471.981 337.46 471.994 336.225 471.994 335C471.994 333.775 471.981 332.54 471.84 331.321L471.642 330.517L471.585 330.086L471 329z"/>
<path style="fill:#907e48; stroke:none;" d="M91 330L92 331L91 330z"/>
<path style="fill:#867545; stroke:none;" d="M130 330L131 331L130 330z"/>
<path style="fill:#8f7d48; stroke:none;" d="M258 330L259 331L258 330z"/>
<path style="fill:#9d894d; stroke:none;" d="M52 331L53 332L52 331z"/>
<path style="fill:#675c3a; stroke:none;" d="M132 331L133 332L132 331z"/>
<path style="fill:#8a7846; stroke:none;" d="M90 332L91 333L90 332z"/>
<path style="fill:#8d7b48; stroke:none;" d="M259 332L260 333L259 332z"/>
<path style="fill:#756740; stroke:none;" d="M325.333 332.667L325.333 333.333L325.667 333.333L325.667 333L325.333 332.667z"/>
<path style="fill:#766840; stroke:none;" d="M51 333L52 334L51 333z"/>
<path style="fill:#a89151; stroke:none;" d="M135 333L136 334L135 333z"/>
<path style="fill:#867545; stroke:none;" d="M89 334L90 335L89 334z"/>
<path style="fill:#95824a; stroke:none;" d="M137 334L138 335L137 334z"/>
<path style="fill:#907e48; stroke:none;" d="M260 334L261 335L260 334z"/>
<path style="fill:#c5aa5b; stroke:none;" d="M325.333 334.667L325.333 335.333L325.667 335.333L325.667 334.667L325.333 334.667z"/>
<path style="fill:#817143; stroke:none;" d="M139 335L140 336L139 335z"/>
<path style="fill:#8a7947; stroke:none;" d="M286.333 335.667L286.333 336.333L286.667 336.333L286.667 335.667L286.333 335.667z"/>
<path style="fill:#ae9753; stroke:none;" d="M49 336L50 337L49 336z"/>
<path style="fill:#847344; stroke:none;" d="M88 336L89 337L88 336z"/>
<path style="fill:#786940; stroke:none;" d="M141 336L142 337L141 336z"/>
<path style="fill:#a69050; stroke:none;" d="M261 336L262 337L261 336z"/>
<path style="fill:#6d613c; stroke:none;" d="M143 337L144 338L143 337z"/>
<path style="fill:#917f49; stroke:none;" d="M48 338L49 339L48 338z"/>
<path style="fill:#837344; stroke:none;" d="M87 338L88 339L87 338z"/>
<path style="fill:#685c3a; stroke:none;" d="M145 338L146 339L145 338z"/>
<path style="fill:#97834b; stroke:none;" d="M324.333 338.667L324.333 339.333L324.667 339.333L324.667 338.667L324.333 338.667z"/>
<path style="fill:#c8ad5c; stroke:none;" d="M429 338L429 342L429.549 340.975L429.679 340L429.549 339.38L429.549 339.025L429 338z"/>
<path style="fill:#655939; stroke:none;" d="M147 339L148 340L147 339z"/>
<path style="fill:#807143; stroke:none;" d="M262 339L263 340L262 339z"/>
<path style="fill:#796b41; stroke:none;" d="M47 340L48 341L47 340z"/>
<path style="fill:#807143; stroke:none;" d="M86 340L87 341L86 340z"/>
<path style="fill:#645939; stroke:none;" d="M149 340L150 341L149 340z"/>
<path style="fill:#93804a; stroke:none;" d="M285 340L285 343L285.579 342.125L285.579 341.199L285.579 340.875L285 340z"/>
<path style="fill:#70623d; stroke:none;" d="M151 341L152 342L151 341z"/>
<path style="fill:#635839; stroke:none;" d="M46 342L47 343L46 342z"/>
<path style="fill:#7f7043; stroke:none;" d="M85 342L86 343L85 342z"/>
<path style="fill:#776940; stroke:none;" d="M153 342L154 343L153 342z"/>
<path style="fill:#655a39; stroke:none;" d="M263.333 342.667L263.333 343.333L263.667 343.333L263.667 342.667L263.333 342.667z"/>
<path style="fill:#ab9452; stroke:none;" d="M429 342L429 347L429.57 345.933L429.608 345.542L429.746 344.183L429.608 343.458L429.57 343.067L429 342z"/>
<path style="fill:#7a6b41; stroke:none;" d="M155 343L156 344L155 343z"/>
<path style="fill:#a89251; stroke:none;" d="M323.333 343.667L323.333 344.333L323.667 344.333L323.667 343.667L323.333 343.667z"/>
<path style="fill:#7f7043; stroke:none;" d="M84 344L85 345L84 344z"/>
<path style="fill:#786a40; stroke:none;" d="M157 344L158 345L157 344z"/>
<path style="fill:#b29a54; stroke:none;" d="M472 344L472 347L472.579 346.125L472.579 345.801L472.579 344.875L472 344z"/>
<path style="fill:#b09954; stroke:none;" d="M44 345L45 346L44 345z"/>
<path style="fill:#6e613d; stroke:none;" d="M159 345L160 346L159 345z"/>
<path style="fill:#9f8a4e; stroke:none;" d="M284 345L284 348L284.579 347.125L284.579 346.801L284.579 345.875L284 345z"/>
<path style="fill:#7e6e42; stroke:none;" d="M83 346L84 347L83 346z"/>
<path style="fill:#b19954; stroke:none;" d="M264 346L264 352L264.582 350.918L264.628 350.502L264.806 349.738L264.806 348.262L264.628 347.498L264.582 347.082L264 346z"/>
<path style="fill:#a18c4f; stroke:none;" d="M43 347L44 348L43 347z"/>
<path style="fill:#ab9452; stroke:none;" d="M162 347L163 348L162 347z"/>
<path style="fill:#9a864c; stroke:none;" d="M322.333 347.667L322.333 348.333L322.667 348.333L322.667 348L322.333 347.667z"/>
<path style="fill:#95824a; stroke:none;" d="M429 347L429 359L429.585 357.914L429.642 357.483L429.84 356.679C429.981 355.46 429.994 354.225 429.994 353C429.994 351.775 429.981 350.54 429.84 349.321L429.642 348.517L429.585 348.086L429 347z"/>
<path style="fill:#423d2d; stroke:none;" d="M472.333 347.667L472.333 348.333L472.667 348.333L472.667 348L472.333 347.667z"/>
<path style="fill:#7d6e42; stroke:none;" d="M82 348L83 349L82 348z"/>
<path style="fill:#7b6c41; stroke:none;" d="M164 348L165 349L164 348z"/>
<path style="fill:#9b874c; stroke:none;" d="M42 349L43 350L42 349z"/>
<path style="fill:#b9a057; stroke:none;" d="M165 349L166 350L165 349z"/>
<path style="fill:#7c6d41; stroke:none;" d="M81 350L82 351L81 350z"/>
<path style="fill:#645939; stroke:none;" d="M167 350L168 351L167 350z"/>
<path style="fill:#a28d4f; stroke:none;" d="M473 350L474 351L473 350z"/>
<path style="fill:#97834b; stroke:none;" d="M41 351L42 352L41 351z"/>
<path style="fill:#99854c; stroke:none;" d="M168 351L169 352L168 351z"/>
<path style="fill:#877645; stroke:none;" d="M283 351L283 354L283.579 353.125L283.579 352.801L283.579 351.875L283 351z"/>
<path style="fill:#907e49; stroke:none;" d="M321.333 351.667L321.333 352.333L321.667 352.333L321.667 351.667L321.333 351.667z"/>
<path style="fill:#635839; stroke:none;" d="M473 351L474 352L473 351z"/>
<path style="fill:#7d6d42; stroke:none;" d="M80 352L81 353L80 352z"/>
<path style="fill:#97844b; stroke:none;" d="M40 353L41 354L40 353z"/>
<path style="fill:#5c5236; stroke:none;" d="M171 353L172 354L171 353z"/>
<path style="fill:#7c6d42; stroke:none;" d="M474 353L475 354L474 353z"/>
<path style="fill:#7e6f42; stroke:none;" d="M79 354L80 355L79 354z"/>
<path style="fill:#867645; stroke:none;" d="M172 354L173 355L172 354z"/>
<path style="fill:#8d7c48; stroke:none;" d="M263.333 354.667L263.333 355.333L263.667 355.333L263.667 354.667L263.333 354.667z"/>
<path style="fill:#9e894e; stroke:none;" d="M39 355L40 356L39 355z"/>
<path style="fill:#b19954; stroke:none;" d="M173 355L174 356L173 355z"/>
<path style="fill:#6a5e3b; stroke:none;" d="M320 355L321 356L320 355z"/>
<path style="fill:#7f7043; stroke:none;" d="M78 356L79 357L78 356z"/>
<path style="fill:#93804a; stroke:none;" d="M282.333 356.667L282.333 357.333L282.667 357.333L282.667 356.667L282.333 356.667z"/>
<path style="fill:#a18c4e; stroke:none;" d="M320 356L321 357L320 356z"/>
<path style="fill:#a99351; stroke:none;" d="M38 357L39 358L38 357z"/>
<path style="fill:#615638; stroke:none;" d="M176 357L177 358L176 357z"/>
<path style="fill:#827244; stroke:none;" d="M77 358L78 359L77 358z"/>
<path style="fill:#847344; stroke:none;" d="M177 358L178 359L177 358z"/>
<path style="fill:#857444; stroke:none;" d="M262 358L263 359L262 358z"/>
<path style="fill:#675c3a; stroke:none;" d="M478 358L479 359L478 358z"/>
<path style="fill:#a99352; stroke:none;" d="M178 359L179 360L178 359z"/>
<path style="fill:#7c6d42; stroke:none;" d="M319 359L320 360L319 359z"/>
<path style="fill:#bfa559; stroke:none;" d="M429 359L429 362L429.579 361.125L429.579 360.801L429.579 359.875L429 359z"/>
<path style="fill:#b79e56; stroke:none;" d="M479 359L480 360L479 359z"/>
<path style="fill:#635939; stroke:none;" d="M37 360L38 361L37 360z"/>
<path style="fill:#877645; stroke:none;" d="M76 360L77 361L76 360z"/>
<path style="fill:#6c603c; stroke:none;" d="M261 360L262 361L261 360z"/>
<path style="fill:#877645; stroke:none;" d="M281 361L281 364L281.579 363.125L281.579 362.801L281.579 361.875L281 361z"/>
<path style="fill:#7f6f42; stroke:none;" d="M36 362L37 363L36 362z"/>
<path style="fill:#8e7c48; stroke:none;" d="M75 362L76 363L75 362z"/>
<path style="fill:#675b3a; stroke:none;" d="M182 362L183 363L182 362z"/>
<path style="fill:#71633d; stroke:none;" d="M260 362L261 363L260 362z"/>
<path style="fill:#8c7a47; stroke:none;" d="M480 362L481 363L480 362z"/>
<path style="fill:#877645; stroke:none;" d="M183 363L184 364L183 363z"/>
<path style="fill:#917e49; stroke:none;" d="M318 363L319 364L318 363z"/>
<path style="fill:#403b2c; stroke:none;" d="M480.333 363.667L480.333 364.333L480.667 364.333L480.667 364L480.333 363.667z"/>
<path style="fill:#a18c4e; stroke:none;" d="M35 364L36 365L35 364z"/>
<path style="fill:#97834b; stroke:none;" d="M74 364L75 365L74 364z"/>
<path style="fill:#ac9552; stroke:none;" d="M184 364L185 365L184 364z"/>
<path style="fill:#95824a; stroke:none;" d="M259 364L260 365L259 364z"/>
<path style="fill:#af9854; stroke:none;" d="M73 366L74 367L73 366z"/>
<path style="fill:#605638; stroke:none;" d="M280.333 366.667L280.333 367.333L280.667 367.333L280.667 366.667L280.333 366.667z"/>
<path style="fill:#827243; stroke:none;" d="M317 366L318 367L317 366z"/>
<path style="fill:#524a33; stroke:none;" d="M430 366L430 369L430.579 368.125L430.579 367.199L430.579 366.875L430 366z"/>
<path style="fill:#827244; stroke:none;" d="M34 367L35 368L34 367z"/>
<path style="fill:#605538; stroke:none;" d="M72 367L73 368L72 367z"/>
<path style="fill:#75683f; stroke:none;" d="M188 367L189 368L188 367z"/>
<path style="fill:#a89251; stroke:none;" d="M257 367L258 368L257 367z"/>
<path style="fill:#a28d4f; stroke:none;" d="M189 368L190 369L189 368z"/>
<path style="fill:#786a40; stroke:none;" d="M256 368L257 369L256 368z"/>
<path style="fill:#47412f; stroke:none;" d="M480 368L480 371L480.579 370.125L480.579 369.801L480.579 368.875L480 368z"/>
<path style="fill:#917e49; stroke:none;" d="M71 369L72 370L71 369z"/>
<path style="fill:#5a5036; stroke:none;" d="M255 369L256 370L255 369z"/>
<path style="fill:#74673f; stroke:none;" d="M316 369L317 370L316 369z"/>
<path style="fill:#8f7d48; stroke:none;" d="M430 369L430 372L430.579 371.125L430.579 370.801L430.579 369.875L430 369z"/>
<path style="fill:#796b41; stroke:none;" d="M33 370L34 371L33 370z"/>
<path style="fill:#5b5236; stroke:none;" d="M192 370L193 371L192 370z"/>
<path style="fill:#8e7c48; stroke:none;" d="M279 370L280 371L279 370z"/>
<path style="fill:#b49c55; stroke:none;" d="M316 370L317 371L316 370z"/>
<path style="fill:#887746; stroke:none;" d="M193 371L194 372L193 371z"/>
<path style="fill:#b79e56; stroke:none;" d="M480.333 371.667L480.333 372.333L480.667 372.333L480.667 371.667L480.333 371.667z"/>
<path style="fill:#9b874c; stroke:none;" d="M69 372L70 373L69 372z"/>
<path style="fill:#675b3a; stroke:none;" d="M315 372L316 373L315 372z"/>
<path style="fill:#8c7b47; stroke:none;" d="M32 373L33 374L32 373z"/>
<path style="fill:#655a39; stroke:none;" d="M68 373L69 374L68 373z"/>
<path style="fill:#584f35; stroke:none;" d="M196 373L197 374L196 373z"/>
<path style="fill:#b19954; stroke:none;" d="M278 373L279 374L278 373z"/>
<path style="fill:#a69050; stroke:none;" d="M315 373L316 374L315 373z"/>
<path style="fill:#8f7d48; stroke:none;" d="M197 374L198 375L197 374z"/>
<path style="fill:#786a40; stroke:none;" d="M278 374L279 375L278 374z"/>
<path style="fill:#655a39; stroke:none;" d="M314 375L315 376L314 375z"/>
<path style="fill:#6d613c; stroke:none;" d="M431 375L431 378L431.579 377.125L431.579 376.801L431.579 375.875L431 375z"/>
<path style="fill:#94824a; stroke:none;" d="M479 375L480 376L479 375z"/>
<path style="fill:#99854c; stroke:none;" d="M31.3333 376.667L31.3333 377L31.6667 377.333L31.6667 377L31.3333 376.667z"/>
<path style="fill:#b9a057; stroke:none;" d="M66 376L67 377L66 376z"/>
<path style="fill:#756840; stroke:none;" d="M200 376L201 377L200 376z"/>
<path style="fill:#ae9753; stroke:none;" d="M314 376L315 377L314 376z"/>
<path style="fill:#a18c4e; stroke:none;" d="M65 377L66 378L65 377z"/>
<path style="fill:#b69d56; stroke:none;" d="M201 377L202 378L201 377z"/>
<path style="fill:#837344; stroke:none;" d="M277 377L278 378L277 377z"/>
<path style="fill:#615738; stroke:none;" d="M478 377L479 378L478 377z"/>
<path style="fill:#595036; stroke:none;" d="M31.3333 378.667L31.3333 379L31.6667 379.333L31.6667 379L31.3333 378.667z"/>
<path style="fill:#817243; stroke:none;" d="M64 378L65 379L64 378z"/>
<path style="fill:#71643e; stroke:none;" d="M203 378L204 379L203 378z"/>
<path style="fill:#786a40; stroke:none;" d="M246 378L247 379L246 378z"/>
<path style="fill:#76683f; stroke:none;" d="M313 378L314 379L313 378z"/>
<path style="fill:#b09854; stroke:none;" d="M478 378L479 379L478 378z"/>
<path style="fill:#695d3b; stroke:none;" d="M63 379L64 380L63 379z"/>
<path style="fill:#ae9753; stroke:none;" d="M245 379L246 380L245 379z"/>
<path style="fill:#615638; stroke:none;" d="M62 380L63 381L62 380z"/>
<path style="fill:#94814a; stroke:none;" d="M206 380L207 381L206 380z"/>
<path style="fill:#75673f; stroke:none;" d="M276.333 380.667L276.333 381.333L276.667 381.333L276.667 380.667L276.333 380.667z"/>
<path style="fill:#ab9452; stroke:none;" d="M477 380L478 381L477 380z"/>
<path style="fill:#595035; stroke:none;" d="M61 381L62 382L61 381z"/>
<path style="fill:#807143; stroke:none;" d="M208 381L209 382L208 381z"/>
<path style="fill:#a89251; stroke:none;" d="M242 381L243 382L242 381z"/>
<path style="fill:#857545; stroke:none;" d="M312 381L313 382L312 381z"/>
<path style="fill:#a99352; stroke:none;" d="M432.333 381.667L432.333 382.333L432.667 382.333L432.667 381.667L432.333 381.667z"/>
<path style="fill:#6e613d; stroke:none;" d="M210 382L211 383L210 382z"/>
<path style="fill:#7f7042; stroke:none;" d="M240 382L241 383L240 382z"/>
<path style="fill:#a99251; stroke:none;" d="M476 382L477 383L476 382z"/>
<path style="fill:#897846; stroke:none;" d="M212 383L213 384L212 383z"/>
<path style="fill:#645939; stroke:none;" d="M238 383L239 384L238 383z"/>
<path style="fill:#af9854; stroke:none;" d="M275 383L276 384L275 383z"/>
<path style="fill:#5d5337; stroke:none;" d="M311 383L312 384L311 383z"/>
<path style="fill:#6c603c; stroke:none;" d="M215 384L216 385L215 384z"/>
<path style="fill:#6b603c; stroke:none;" d="M236 384L237 385L236 384z"/>
<path style="fill:#5a5035; stroke:none;" d="M275 384L276 385L275 384z"/>
<path style="fill:#b29a54; stroke:none;" d="M311 384L312 385L311 384z"/>
<path style="fill:#5a5035; stroke:none;" d="M57 385L58 386L57 385z"/>
<path style="fill:#928049; stroke:none;" d="M217.667 385.333L218 385.667L218.333 385.667L218 385.333L217.667 385.333z"/>
<path style="fill:#5f5537; stroke:none;" d="M233 385L234 386L233 385z"/>
<path style="fill:#9f8a4d; stroke:none;" d="M234 385L235 386L234 385z"/>
<path style="fill:#8d7b47; stroke:none;" d="M433 385L434 386L433 385z"/>
<path style="fill:#867645; stroke:none;" d="M474 385L475 386L474 385z"/>
<path style="fill:#b9a057; stroke:none;" d="M31.3333 386.667L31.3333 387L31.6667 387.333L31.6667 386.667L31.3333 386.667z"/>
<path style="fill:#695e3b; stroke:none;" d="M56 386L57 387L56 386z"/>
<path style="fill:#b79e56; stroke:none;" d="M222 386L222.909 386.585L223.347 386.653L225 387L224.091 386.415L223.653 386.347L222 386z"/>
<path style="fill:#776940; stroke:none;" d="M225 386L225.909 386.585L226.347 386.653L228 387L227.091 386.415L226.653 386.347L225 386z"/>
<path style="fill:#98854b; stroke:none;" d="M228 386L228.909 386.585L229.347 386.653L231 387L230.091 386.415L229.653 386.347L228 386z"/>
<path style="fill:#8f7d48; stroke:none;" d="M274 386L275 387L274 386z"/>
<path style="fill:#917f49; stroke:none;" d="M310 386L311 387L310 386z"/>
<path style="fill:#8f7d48; stroke:none;" d="M55 387L56 388L55 387z"/>
<path style="fill:#b39b55; stroke:none;" d="M54 388L55 389L54 388z"/>
<path style="fill:#6e623d; stroke:none;" d="M309 388L310 389L309 388z"/>
<path style="fill:#96824a; stroke:none;" d="M434 388L435 389L434 388z"/>
<path style="fill:#a59050; stroke:none;" d="M472 388L473 389L472 388z"/>
<path style="fill:#595035; stroke:none;" d="M52 389L53 390L52 389z"/>
<path style="fill:#9a864c; stroke:none;" d="M273 389L274 390L273 389z"/>
<path style="fill:#72653e; stroke:none;" d="M471 389L472 390L471 389z"/>
<path style="fill:#9e894d; stroke:none;" d="M33 390L34 391L33 390z"/>
<path style="fill:#a48f50; stroke:none;" d="M51 390L52 391L51 390z"/>
<path style="fill:#5b5236; stroke:none;" d="M308 390L309 391L308 390z"/>
<path style="fill:#776840; stroke:none;" d="M435 390L436 391L435 390z"/>
<path style="fill:#585035; stroke:none;" d="M470 390L471 391L470 390z"/>
<path style="fill:#b29b55; stroke:none;" d="M34 391L35 392L34 391z"/>
<path style="fill:#827244; stroke:none;" d="M49 391L50 392L49 391z"/>
<path style="fill:#70633d; stroke:none;" d="M36 392L37 393L36 392z"/>
<path style="fill:#93804a; stroke:none;" d="M47 392L48 393L47 392z"/>
<path style="fill:#74673f; stroke:none;" d="M436 392L437 393L436 392z"/>
<path style="fill:#7d6e42; stroke:none;" d="M38.6667 393.333L38.6667 393.667L39.3333 393.667L39.3333 393.333L38.6667 393.333z"/>
<path style="fill:#5a5035; stroke:none;" d="M40 393L41.0401 393.585L41.3588 393.641L42.4776 393.897L44 394L42.9599 393.415L42.6412 393.359L41.5224 393.103L40 393z"/>
<path style="fill:#c9ae5d; stroke:none;" d="M44.6667 393.333L44.6667 393.667L45.3333 393.667L45.3333 393.333L44.6667 393.333z"/>
<path style="fill:#7d6e42; stroke:none;" d="M272.333 393.667L272.333 394.333L272.667 394.333L272.667 393.667L272.333 393.667z"/>
<path style="fill:#b9a057; stroke:none;" d="M307 393L308 394L307 393z"/>
<path style="fill:#9a864c; stroke:none;" d="M437 394L438 395L437 394z"/>
<path style="fill:#433d2e; stroke:none;" d="M272.333 395.667L272.333 396.333L272.667 396.333L272.667 395.667L272.333 395.667z"/>
<path style="fill:#b69d56; stroke:none;" d="M306 395L307 396L306 395z"/>
<path style="fill:#5e5437; stroke:none;" d="M438 395L439 396L438 395z"/>
<path style="fill:#6e623d; stroke:none;" d="M465 395L466 396L465 395z"/>
<path style="fill:#927f49; stroke:none;" d="M464 396L465 397L464 396z"/>
<path style="fill:#75673f; stroke:none;" d="M304 398L305 399L304 398z"/>
<path style="fill:#827244; stroke:none;" d="M461 398L462 399L461 398z"/>
<path style="fill:#5e5437; stroke:none;" d="M442 399L443 400L442 399z"/>
<path style="fill:#6c603c; stroke:none;" d="M459 399L460 400L459 399z"/>
<path style="fill:#94814a; stroke:none;" d="M303 400L304 401L303 400z"/>
<path style="fill:#ab9452; stroke:none;" d="M443 400L444 401L443 400z"/>
<path style="fill:#7b6c41; stroke:none;" d="M457 400L458 401L457 400z"/>
<path style="fill:#514932; stroke:none;" d="M446.667 401.333L447 401.667L447.333 401.667L447.333 401.333L446.667 401.333z"/>
<path style="fill:#675b3a; stroke:none;" d="M452 401L452.909 401.585L453.347 401.653L455 402L454.091 401.415L453.653 401.347L452 401z"/>
<path style="fill:#7f7043; stroke:none;" d="M301 403L302 404L301 403z"/>
<path style="fill:#96834a; stroke:none;" d="M272.333 404.667L272.333 405.333L272.667 405.333L272.667 404.667L272.333 404.667z"/>
<path style="fill:#6c603c; stroke:none;" d="M273 407L274 408L273 407z"/>
<path style="fill:#ae9753; stroke:none;" d="M274 409L275 410L274 409z"/>
<path style="fill:#a59050; stroke:none;" d="M275 410L276 411L275 410z"/>
<path style="fill:#98844c; stroke:none;" d="M294 410L295 411L294 410z"/>
<path style="fill:#8e7c48; stroke:none;" d="M292 411L293 412L292 411z"/>
<path style="fill:#4f4732; stroke:none;" d="M279.667 412.333L280 412.667L280.333 412.667L280.333 412.333L279.667 412.333z"/>
<path style="fill:#7e6e42; stroke:none;" d="M288.667 412.333L289 412.667L289.333 412.667L289.333 412.333L288.667 412.333z"/>
<path style="fill:#ccb05e; stroke:none;" d="M282 413L283.04 413.585L283.359 413.641L284.478 413.897L286 414L284.96 413.415L284.641 413.359L283.522 413.103L282 413z"/>
<path style="fill:#000000; stroke:none;" d="M0 471L0 512L41 512L39.9136 511.313L39.483 511.176L38.679 510.834C36.7852 510.201 34.8678 509.645 33 508.934C30.9451 508.153 28.9469 507.236 27 506.215C25.2767 505.312 23.5838 504.346 22 503.211C19.4595 501.392 17.2053 499.215 15.0147 496.996C12.839 494.792 10.7548 492.505 8.92747 490C7.54241 488.101 6.33625 486.095 5.27315 484C4.28698 482.057 3.43442 480.051 2.6983 478.001L1.16589 473.321L0.824074 472.517L0.686728 472.086L0 471M511 471L510.802 472.671L510.684 473.159L510.481 474.16L509.957 476.025L509.301 478.002C508.932 479.011 508.552 480.012 508.127 481C507.088 483.419 505.884 485.788 504.452 488C503.553 489.389 502.557 490.703 501.532 492L499.826 494C498.923 495.036 497.951 496.018 496.985 496.996C494.795 499.215 492.541 501.392 490 503.211C487.814 504.777 485.423 506.058 483 507.215C482.014 507.686 481.018 508.149 480 508.547C478.085 509.295 476.149 509.957 474.16 510.481L472.671 510.802L471 511L472.086 511.585L472.517 511.642L473.321 511.84L475.059 511.966L478.001 511.999L485 512L512 512L512 485L511.999 478.001L511.966 475.059L511.84 473.321L511.642 472.517L511.585 472.086L511 471z"/>
<path style="fill:#ffff00; stroke:none;" d="M20 502L21 503L20 502z"/>
<path style="fill:#ff0000; stroke:none;" d="M491 502L492 503L491 502z"/>
</svg>
